<?xml version="1.0" encoding="UTF-8" standalone="no"?>
<?xml-stylesheet type="text/css" href="../css/froala_blocks.css"?><!-- Created with Inkscape (http://www.inkscape.org/) -->

<svg
   xmlns:dc="http://purl.org/dc/elements/1.1/"
   xmlns:cc="http://creativecommons.org/ns#"
   xmlns:rdf="http://www.w3.org/1999/02/22-rdf-syntax-ns#"
   xmlns:svg="http://www.w3.org/2000/svg"
   xmlns="http://www.w3.org/2000/svg"
   xmlns:sodipodi="http://sodipodi.sourceforge.net/DTD/sodipodi-0.dtd"
   xmlns:inkscape="http://www.inkscape.org/namespaces/inkscape"
   height="160"
   width="140"
   version="1.1"
   viewBox="0 0 220.00001 258"
   id="svg208"
   sodipodi:docname="rabbit.svg"
   inkscape:export-filename="/home/murali/live website/liw_new_version_hugo/themes/base/static/images/favicon.png"
   inkscape:export-xdpi="90"
   inkscape:export-ydpi="90"
   inkscape:version="0.92.3 (unknown)">
  <metadata
     id="metadata214">
    <rdf:RDF>
      <cc:Work
         rdf:about="">
        <dc:format>image/svg+xml</dc:format>
        <dc:type
           rdf:resource="http://purl.org/dc/dcmitype/StillImage" />
        <dc:title></dc:title>
      </cc:Work>
    </rdf:RDF>
  </metadata>
  <defs
     id="defs212" />
  <sodipodi:namedview
     pagecolor="#ffffff"
     bordercolor="#666666"
     borderopacity="1"
     objecttolerance="10"
     gridtolerance="10"
     guidetolerance="10"
     inkscape:pageopacity="0"
     inkscape:pageshadow="2"
     inkscape:window-width="1366"
     inkscape:window-height="744"
     id="namedview210"
     showgrid="false"
     inkscape:zoom="0.91472868"
     inkscape:cx="100"
     inkscape:cy="129"
     inkscape:window-x="0"
     inkscape:window-y="24"
     inkscape:window-maximized="1"
     inkscape:current-layer="g206" />
  <g
     transform="translate(-13.200001,-794.36)"
     id="g206">
    <g
       transform="matrix(0.39287,0,0,0.41778,-17.678,801.24)"
       stroke-miterlimit="10"
       class="hvr-glow"
       id="g150"
       style="fill-rule:evenodd;stroke:#000000;stroke-width:0.036;stroke-miterlimit:10">
      <path
         d="m 330.99,101.85 c 2.231,-1.476 4.355,-4.356 6.228,-8.928 1.872,-4.716 4.104,-12.24 5.04,-18.252 0.72,-6.12 -1.548,-11.808 0,-17.496 1.476,-5.688 3.708,-9.504 9.324,-16.308 5.651,-6.948 16.308,-18 24.479,-24.84 8.064,-7.02 15.805,-13.428 23.652,-16.308 7.848,-2.808 19.8,-2.556 22.932,-0.792 2.88,1.656 -2.088,5.112 -5.04,10.512 -3.06,5.4 -7.704,11.448 -12.815,21.744 -5.22,10.296 -8.856,25.128 -17.856,39.204 -9.144,14.004 -20.916,28.26 -36.144,43.884 7.992,-2.304 15.876,-7.308 24.084,-15.156 8.1,-7.992 16.128,-23.004 24.479,-31.824 8.353,-8.892 17.28,-14.832 25.236,-20.592 7.812,-5.868 13.392,-7.056 21.744,-13.968 8.315,-7.092 21.852,-25.308 27.972,-27.576 5.868,-2.196 9.288,3.708 7.74,14.364 -1.764,10.656 -8.28,34.74 -17.064,48.924 -8.928,13.968 -22.067,25.344 -34.956,34.56 -12.888,9.144 -30.924,13.752 -41.184,20.196 -10.296,6.372 -16.668,12.276 -19.8,17.856 l 0.792,4.284 c 7.128,0.18 12.132,1.476 15.156,3.888 2.987,2.376 2.088,5.544 2.699,10.476 0.504,4.86 0.828,14.184 0.396,18.648 -0.468,4.464 -1.764,6.876 -3.492,7.776 2.052,-0.972 3.996,-1.368 5.437,-1.188 1.403,0.072 2.699,0.72 3.491,1.944 3.024,-7.524 5.688,-13.644 8.137,-18.648 2.376,-5.112 3.06,-11.772 6.228,-11.232 3.132,0.612 7.596,10.008 12.42,14.724 4.716,4.5 14.112,7.956 15.552,12.456 1.261,4.428 -1.332,9.216 -7.775,14.364 3.563,-0.72 7.271,-0.504 11.268,0.648 3.996,1.188 7.992,3.168 12.42,6.228 -4.212,0.108 -7.704,0.576 -10.476,1.548 -2.844,0.9 -4.824,2.196 -6.229,3.888 7.74,3.78 13.86,7.272 19.044,10.476 5.076,3.096 10.261,5.256 11.232,8.568 0.72,3.168 -2.412,5.22 -6.192,10.872 -3.852,5.652 -9.107,13.14 -16.308,22.896 1.656,1.008 3.672,2.592 6.192,5.04 2.447,2.376 5.256,5.436 8.567,9.324 4.429,-1.188 8.389,-0.792 12.024,1.188 3.6,1.908 6.84,5.4 9.72,10.477 7.128,-7.632 14.364,-14.4 22.141,-20.592 7.668,-6.264 16.703,-13.644 24.048,-16.308 7.308,-2.736 13.319,-3.384 19.439,0.396 6.048,3.852 13.752,15.264 16.309,22.14 2.268,6.696 0.792,12.276 -2.341,17.855 -3.275,5.509 -8.712,10.513 -16.703,15.156 0.827,3.384 2.304,6.48 4.283,9.685 1.98,3.06 4.608,6.084 7.74,8.928 -8.316,3.24 -16.92,6.084 -26.388,8.532 -9.576,2.231 -21.816,3.527 -29.916,5.831 -8.064,2.377 -14.148,5.005 -18.252,8.173 v 43.092 c 5.472,2.124 9.647,5.22 13.212,9.72 3.348,4.428 8.208,9.72 7.38,16.704 -0.937,6.948 -6.048,20.556 -12.42,24.444 -6.48,3.636 -19.692,1.044 -26.028,-1.944 -6.408,-3.204 -10.836,-10.26 -12.023,-16.308 -1.225,-6.084 0.647,-14.4 4.644,-19.801 3.924,-5.436 10.044,-9.756 18.648,-12.815 l -0.396,-38.448 c -1.26,0.504 -4.104,2.304 -8.532,5.832 -4.5,3.456 -10.584,8.244 -18.252,14.76 0.036,2.521 0.685,5.761 1.944,9.721 1.26,3.924 3.024,8.531 5.436,13.968 -6.983,2.664 -12.456,5.076 -16.703,7.38 -4.213,2.268 -7.057,4.284 -8.532,6.191 l 3.096,14.005 c -7.884,1.62 -15.552,2.987 -23.292,4.248 -7.812,1.296 -15.3,2.159 -22.896,3.132 -1.477,3.42 -2.521,7.632 -3.528,12.779 -0.937,5.076 0.756,12.564 -2.304,17.893 -3.276,5.147 -12.925,9.252 -16.704,13.572 -3.853,4.283 -1.908,7.775 -5.832,12.42 -4.068,4.536 -14.185,9.396 -17.856,15.155 -3.708,5.832 -3.852,12.456 -3.888,19.044 0,6.372 1.296,13.5 3.492,19.009 2.052,5.363 4.104,9.216 8.928,13.212 4.752,3.888 15.012,6.552 19.8,10.08 4.788,3.42 8.712,8.676 8.568,10.512 -0.396,1.692 -3.853,1.692 -10.512,0 -3.385,1.908 -6.48,2.808 -9.288,2.7 -2.881,-0.145 -5.473,-1.261 -7.776,-3.492 -2.736,0.612 -4.932,0.792 -6.984,0.396 -2.052,-0.432 -3.743,-1.296 -5.075,-2.735 -2.592,1.476 -5.437,1.656 -8.532,0.396 -3.204,-1.367 -7.488,-4.284 -10.08,-7.775 -2.628,-3.528 -3.924,-9.973 -5.436,-12.816 -1.656,-2.88 -2.448,1.26 -3.889,-4.248 -1.584,-5.616 -3.239,-26.244 -4.68,-29.124 -1.404,-2.88 -2.52,5.58 -3.492,11.628 -0.936,6.048 -1.188,17.964 -2.304,24.084 -1.296,5.832 -1.836,8.244 -5.076,11.269 -3.456,3.023 -10.836,5.544 -14.364,6.588 -3.491,0.828 -5.508,0.576 -6.191,-1.152 -2.196,2.628 -5.221,4.212 -8.929,5.04 -3.852,0.756 -8.243,0.576 -13.607,-0.396 -6.588,0.504 -10.944,0.684 -13.212,0.396 -2.268,-0.288 -2.448,-0.936 -0.396,-1.944 -4.14,-1.26 -6.155,-2.628 -6.191,-4.247 -0.145,-1.62 3.275,-3.349 5.832,-5.473 2.556,-2.268 5.615,-6.048 9.323,-7.74 3.673,-1.728 8.46,0.36 12.42,-2.34 3.853,-2.88 7.992,-6.191 10.477,-14.364 2.34,-8.388 3.636,-19.764 3.888,-34.955 -6.876,-4.788 -12.132,-9.217 -15.912,-13.969 -3.779,-4.788 -5.939,-9.216 -6.624,-13.968 -8.46,-6.768 -13.896,-11.808 -16.704,-15.552 -2.88,-3.78 1.656,-3.24 0,-6.588 -1.691,-3.601 -8.243,-8.46 -10.079,-13.608 -1.872,-5.112 -2.305,-10.548 -1.152,-16.704 -11.232,-5.328 -22.572,-10.224 -34.561,-14.832 -12.06,-4.716 -29.412,-9.54 -36.9,-12.815 -7.416,-3.204 -6.624,-3.924 -7.776,-6.588 -1.368,-2.916 -2.34,-3.097 0,-10.116 2.34,-7.164 7.056,-18.145 14.004,-31.824 6.876,-13.788 20.053,-36.792 27.181,-49.716 6.947,-12.924 9.828,-15.696 14.76,-27.072 4.824,-11.484 9.612,-24.984 14.364,-41.184 l -8.568,4.68 c -2.412,3.132 -3.96,6.444 -5.04,10.08 -1.116,3.6 -1.368,7.488 -1.152,11.664 -9.071,-5.832 -18.684,-9.54 -29.124,-11.268 -10.548,-1.764 -21.492,-1.548 -33.408,0.792 l 0.396,-17.496 c -4.176,0.18 -7.92,-0.468 -11.664,-1.944 -3.852,-1.476 -10.584,-1.764 -10.476,-6.984 0.072,-5.436 4.572,-14.364 11.268,-24.84 6.732,-10.548 16.164,-22.932 28.728,-37.692 -3.312,-0.432 -5.544,-1.548 -6.984,-3.492 -1.44,-1.98 -1.908,-4.645 -1.548,-8.136 -3.384,-1.188 -7.308,-0.72 -12.06,1.548 -4.752,2.196 -10.188,6.084 -16.308,11.664 -0.756,-2.52 -1.008,-6.876 -0.756,-13.212 0.252,-6.48 0.972,-14.58 2.304,-24.84 0.468,4.68 3.924,8.604 10.512,11.628 6.588,3.096 15.984,5.112 28.728,6.588 -0.18,-2.592 0.252,-4.356 1.152,-5.436 0.864,-1.116 2.34,-1.548 4.284,-1.152 -0.575,-2.34 -0.107,-3.888 1.549,-4.644 1.584,-0.792 4.355,-0.792 8.172,0 2.052,-2.304 4.067,-3.42 6.191,-3.492 2.124,-0.108 4.068,0.972 6.229,3.096 1.979,-1.764 3.996,-2.16 6.191,-1.188 2.195,0.972 5.652,4.608 6.624,7.02 0.828,2.376 0.36,4.572 -1.548,6.984 l 43.488,2.7 c -0.288,-4.068 0.432,-7.596 2.304,-10.872 1.765,-3.24 2.952,-4.968 8.568,-8.532 5.616,-3.672 13.716,-8.028 24.84,-13.212 0.432,-6.912 2.844,-11.124 7.38,-13.176 4.5,-2.052 10.872,-1.62 19.404,1.152 6.768,-3.708 12.6,-5.256 17.496,-5.04 4.893,0.246 8.637,2.478 11.625,6.69 z m -116.5,49.608 24.876,0.396 0.756,6.192 c -3.924,2.448 -6.984,5.112 -9.324,8.532 -2.483,3.312 -3.888,6.192 -4.644,11.268 -0.756,5.004 -0.576,11.124 0.396,18.648 -4.536,-6.624 -8.063,-12.708 -11.268,-18.648 -3.061,-5.976 -5.652,-11.412 -7.38,-16.704 3.096,-1.044 5.04,-2.196 6.228,-3.852 1.008,-1.656 1.261,-3.6 0.36,-5.832 z m -7.38,0 c 0.756,2.844 0.504,4.788 -0.756,5.832 -1.368,0.972 -3.601,1.188 -6.984,0.36 l -2.736,-7.38 z m -57.06,-3.888 10.477,0.756 0.792,4.68 -3.889,2.34 c -2.412,-0.252 -4.176,-1.08 -5.436,-2.34 -1.26,-1.332 -1.908,-3.096 -1.944,-5.436 z m 259.78,135.32 c 0.611,3.024 1.908,5.22 3.888,6.984 1.908,1.728 4.5,2.628 7.776,3.096 l 4.248,4.68 c -1.872,2.124 -1.872,4.969 0,8.532 1.764,3.601 5.436,7.776 10.872,12.816 l -15.912,7.775 c -2.412,-5.508 -4.393,-11.628 -6.229,-19.044 -1.835,-7.451 -3.383,-15.551 -4.643,-24.839 z"
         id="path2"
         inkscape:connector-curvature="0" />
      <path
         d="m 241.74,144.87 c 0.54,-4.68 1.116,-8.244 1.872,-10.692 0.647,-2.592 1.476,-3.888 2.34,-4.284 0.145,3.744 0.432,6.408 1.152,8.532 0.576,2.016 0.792,3.924 2.735,3.492 1.944,-0.612 7.885,-4.572 8.929,-6.588 0.899,-2.052 -2.628,-3.816 -3.097,-5.436 -0.575,-1.728 -1.367,-3.132 0,-4.644 1.225,-1.62 3.672,-3.132 7.74,-5.076 4.068,-2.088 9.324,-4.5 16.308,-7.38 -0.468,-4.392 0.181,-7.668 2.341,-9.684 2.052,-2.052 6.947,-2.916 10.115,-2.736 3.097,0.036 5.94,1.08 8.532,3.132 5.4,-2.916 10.404,-4.392 15.156,-4.284 4.644,0.072 9.504,2.412 13.176,4.644 3.636,2.016 5.328,2.664 8.568,7.776 3.096,5.076 8.855,20.556 10.476,22.14 1.512,1.26 -1.8,-11.772 -0.792,-13.968 0.936,-2.16 4.716,-0.612 6.624,0.756 1.8,1.152 3.348,3.492 4.644,6.624 1.296,3.06 2.845,7.2 3.097,12.024 0.144,4.896 0.396,10.512 -2.305,16.704 -2.916,6.084 -8.027,14.22 -14.363,19.404 -6.408,5.004 -16.128,8.208 -23.328,10.872 -7.308,2.628 -17.424,4.932 -19.8,4.68 -2.304,-0.504 3.708,-3.96 5.832,-6.624 2.016,-2.628 2.016,-5.004 6.228,-8.928 4.177,-4.104 18.756,-13.968 18.612,-15.156 -0.324,-1.188 -16.632,8.892 -20.196,8.172 -3.636,-0.9 -0.036,-9.9 -1.151,-12.816 -1.261,-2.952 -4.824,-5.076 -5.832,-4.284 -1.044,0.864 -0.324,4.896 -0.36,9.324 -0.252,4.32 2.952,13.176 -0.396,16.308 -3.492,2.988 -17.244,-0.432 -19.44,1.548 -2.088,1.908 7.704,7.596 6.624,9.72 -1.332,2.016 -9.288,2.664 -14.004,2.34 -4.824,-0.396 -10.404,-1.404 -13.968,-4.68 -3.492,-3.348 -5.868,-8.568 -6.984,-15.516 3.024,0.684 5.688,0.252 8.136,-1.152 2.376,-1.548 6.12,-6.408 6.229,-7.38 -0.036,-1.008 -3.132,1.584 -6.229,1.944 -3.24,0.252 -9.18,0.72 -12.42,0 -3.275,-0.828 -5.328,-2.808 -6.983,-4.68 -1.729,-2.016 -2.881,-4.14 -3.313,-6.804 l 6.156,0.072 c 1.224,1.728 2.483,2.808 3.78,2.844 1.331,0.144 3.132,-0.756 3.852,-2.304 0.612,-1.8 0.396,-6.192 -0.36,-7.776 -0.972,-1.62 -3.456,-1.584 -4.68,-1.548 -1.224,-0.072 -1.944,0.468 -2.304,1.476 z"
         id="path4"
         inkscape:connector-curvature="0"
         style="fill:#e0e0e0" />
      <path
         d="m 301.86,141.16 c -1.368,-0.36 -4.212,-4.428 -4.645,-8.172 -0.468,-3.816 0.36,-10.188 1.944,-13.968 1.512,-3.852 3.888,-7.02 6.984,-8.532 3.06,-1.62 6.731,-2.988 10.872,-0.792 3.924,2.124 9.396,9.576 12.815,13.608 3.42,3.924 7.776,8.964 7.38,9.684 -0.54,0.576 -9.071,-6.948 -10.476,-6.192 -1.548,0.756 1.979,6.516 1.548,10.476 -0.576,3.852 -3.204,12.348 -4.284,12.42 -1.008,-0.18 -0.684,-10.98 -1.943,-12.816 -1.477,-1.908 -3.816,2.304 -6.589,1.944 -2.916,-0.396 -8.208,-4.68 -10.476,-4.248 -2.301,0.432 -1.906,6.696 -3.13,6.588 z"
         id="path6"
         inkscape:connector-curvature="0" />
      <path
         d="m 305.75,127.55 c -1.188,-1.224 -1.439,-2.952 -0.756,-5.04 0.648,-2.232 2.376,-6.444 4.644,-7.776 2.124,-1.368 6.337,-1.548 8.173,0 1.764,1.44 2.483,4.428 2.304,8.964 -1.908,-2.016 -3.456,-2.88 -4.645,-2.736 -1.26,0.108 -2.268,1.728 -2.735,3.492 -0.648,1.764 -0.828,4.716 -0.396,6.624 0.433,1.692 3.744,3.672 3.132,3.852 -0.863,0.036 -5.688,-1.872 -7.38,-3.096 -1.621,-1.224 -2.448,-2.7 -2.341,-4.284 z"
         id="path8"
         inkscape:connector-curvature="0"
         style="fill:#ffffff" />
      <path
         d="m 264.61,139.22 c 0.396,-3.564 1.548,-6.372 3.06,-8.568 1.476,-2.232 3.384,-2.952 6.264,-4.644 2.916,-1.764 6.408,-3.708 10.872,-5.832 -3.168,2.484 -5.903,4.68 -8.496,6.588 -2.664,1.836 -5.22,2.448 -6.84,4.752 -1.728,2.268 -3.456,8.352 -2.7,8.928 0.685,0.396 3.996,-4.428 7.164,-5.868 3.097,-1.512 8.316,-2.556 11.628,-2.736 3.204,-0.216 5.797,0.252 7.776,1.548 -7.632,-0.144 -13.32,0.504 -17.46,1.944 -4.104,1.476 -5.616,4.968 -7.02,6.588 -1.584,1.512 -1.261,2.664 -1.944,2.34 -0.685,-0.504 -1.548,-2.088 -2.304,-5.04 z"
         id="path10"
         inkscape:connector-curvature="0" />
      <path
         d="m 272.34,143.11 c 2.088,-2.196 4.896,-3.276 8.425,-2.952 3.527,0.288 7.668,1.692 12.563,4.5 -4.752,-4.176 -8.748,-6.372 -12.276,-6.588 -3.564,-0.216 -6.371,1.332 -8.712,5.04 z"
         id="path12"
         inkscape:connector-curvature="0" />
      <path
         d="m 269.64,146.2 c 6.155,-0.828 10.943,-0.54 14.76,1.152 3.815,1.656 6.228,4.464 7.775,8.568 -5.184,-4.104 -9.359,-6.912 -13.212,-8.568 -3.815,-1.692 -6.876,-1.98 -9.323,-1.152 z"
         id="path14"
         inkscape:connector-curvature="0" />
      <path
         d="m 249.91,130 c -0.216,-2.988 -1.62,-6.3 -4.644,-10.08 -3.024,-3.78 -7.38,-7.92 -13.212,-12.42 5.363,5.544 9.323,10.152 12.42,13.968 2.988,3.744 4.753,6.588 5.436,8.532 z"
         id="path16"
         inkscape:connector-curvature="0" />
      <path
         d="m 247.43,132.12 c -1.403,-4.716 -3.779,-8.388 -7.416,-11.016 -3.636,-2.7 -8.388,-4.248 -14.256,-4.788 3.672,0.972 7.164,2.736 10.872,5.436 3.564,2.628 7.164,6.084 10.8,10.368 z"
         id="path18"
         inkscape:connector-curvature="0" />
      <path
         d="m 244.73,135.36 c -1.944,-4.212 -4.717,-7.272 -8.316,-9.18 -3.672,-1.979 -8.1,-2.808 -13.428,-2.484 4.968,1.152 9.107,2.664 12.815,4.68 3.673,1.98 6.517,4.212 8.929,6.984 z"
         id="path20"
         inkscape:connector-curvature="0" />
      <path
         d="m 243.87,138.96 c -2.304,-3.492 -5.184,-5.688 -8.64,-7.128 -3.528,-1.368 -7.488,-1.8 -12.168,-1.152 3.995,0.864 7.739,2.16 11.231,3.492 3.493,1.296 6.589,3.024 9.577,4.788 z"
         id="path22"
         inkscape:connector-curvature="0" />
      <g
         id="g42"
         style="fill:#e0e0e0">
        <path
           d="m 334.48,103.4 c 1.332,-0.576 2.844,-2.988 4.68,-7.776 1.764,-4.824 5.256,-13.716 6.191,-20.556 0.864,-6.804 -3.456,-13.536 -0.756,-20.196 2.592,-6.804 10.944,-14.112 16.309,-19.836 5.292,-5.796 9.504,-9.432 15.119,-14.364 5.437,-5.148 10.765,-11.988 17.496,-15.516 6.66,-3.492 18.396,-5.364 22.141,-5.04 3.384,0.324 1.403,2.52 -0.792,6.984 -2.305,4.464 -8.353,12.42 -12.024,19.404 -3.708,6.804 -5.472,13.68 -9.72,21.744 -4.356,8.136 -13.5,23.796 -15.912,26.424 -2.412,2.34 2.736,-11.592 1.548,-11.664 -1.332,0 -6.516,5.832 -9.324,11.268 -2.844,5.292 -3.96,13.644 -7.775,20.592 -3.96,6.948 -9.216,13.572 -15.912,20.556 -1.477,-2.736 -3.204,-4.932 -5.04,-6.984 -1.874,-2.088 -3.998,-3.636 -6.229,-5.04 z"
           id="path24"
           inkscape:connector-curvature="0" />
        <path
           d="m 355.07,117.37 c 2.34,-2.592 11.483,-4.716 18.252,-11.232 6.695,-6.66 14.04,-19.044 21.744,-27.972 7.56,-9.036 15.228,-18.828 23.688,-25.632 8.46,-6.84 24.048,-14.4 26.784,-14.76 2.556,-0.36 -4.896,6.048 -11.269,12.42 -6.588,6.264 -19.439,16.128 -27.18,24.876 -7.776,8.748 -16.056,21.384 -18.612,26.784 -2.628,5.184 -2.159,9.9 3.492,4.284 5.76,-5.976 21.996,-28.692 30.672,-38.448 8.425,-9.648 14.185,-11.916 20.196,-19.044 5.868,-7.344 10.116,-17.496 15.516,-24.084 5.328,-6.696 13.393,-15.12 16.704,-15.12 3.313,0.072 4.824,5.796 2.736,15.516 -2.268,9.576 -9,29.988 -16.308,41.94 -7.452,11.844 -17.101,20.952 -27.973,29.124 -11.088,8.064 -28.188,14.184 -37.296,19.044 -9.072,4.68 -11.988,6.012 -16.668,9.288 -4.752,3.24 -8.604,9.108 -11.268,10.116 -2.7,0.792 -3.24,-2.484 -4.681,-4.68 -1.584,-2.34 -2.808,-6.48 -4.248,-8.532 -1.545,-2.088 -6.585,-1.44 -4.281,-3.888 z"
           id="path26"
           inkscape:connector-curvature="0" />
        <path
           d="m 445.14,301.54 c 4.177,-6.336 8.532,-10.296 13.212,-12.42 4.645,-2.125 9.757,-2.125 14.761,0 4.968,2.195 13.176,10.115 14.76,12.779 1.368,2.557 -2.664,3.528 -5.832,2.341 -3.168,-1.332 -10.872,-9.181 -12.816,-10.08 -1.907,-0.973 2.232,2.987 1.188,4.248 -1.296,1.044 -5.688,0.936 -8.172,2.735 -2.484,1.836 -3.564,5.616 -6.588,8.137 -3.168,2.447 -7.093,4.392 -12.061,6.228 -1.116,-2.628 -1.368,-5.04 -1.151,-7.38 0.215,-2.448 1.115,-4.464 2.699,-6.588 z"
           id="path28"
           inkscape:connector-curvature="0" />
        <path
           d="m 373.32,440.72 c 0.144,8.316 -0.792,15.048 -3.097,20.592 -2.447,5.364 -7.668,7.309 -10.512,12.061 -2.771,4.716 -2.844,11.916 -6.192,16.308 -3.527,4.248 -10.584,5.4 -14.363,9.288 -3.924,3.852 -6.876,8.568 -8.172,13.608 -1.225,5.004 -0.504,9.144 0.792,15.911 1.188,6.732 3.24,17.82 6.588,23.688 3.312,5.616 9.107,7.74 13.212,10.116 3.996,2.231 7.668,2.124 10.872,3.852 3.132,1.692 7.739,5.148 8.136,6.624 0.324,1.368 -1.512,2.017 -5.796,1.944 -4.68,-4.032 -7.74,-6.624 -9.324,-7.38 -1.584,-0.756 -1.116,0.72 0,2.34 1.008,1.404 5.94,4.716 6.192,6.191 0.071,1.404 -3.492,2.736 -5.437,2.341 -2.052,-0.504 -3.924,-2.412 -6.588,-5.04 -2.844,-2.736 -9.144,-10.944 -9.72,-10.872 -0.504,0.036 1.656,3.779 6.624,11.231 -1.332,0.9 -3.096,0.648 -5.437,-0.359 -2.376,-1.188 -6.335,-4.284 -8.567,-6.229 -2.448,-1.979 -5.148,-6.336 -5.04,-5.436 0.216,0.828 2.196,4.319 6.228,10.476 -3.708,0.973 -6.768,0.504 -9.323,-1.548 -2.521,-2.232 -4.284,-7.2 -5.832,-10.872 -1.765,-3.564 -3.097,-7.056 -4.284,-10.476 -2.412,-0.504 -3.96,-2.881 -5.04,-6.984 -1.044,-4.284 -1.008,-11.808 -1.152,-17.856 -0.359,-6.084 -2.987,-11.628 -0.396,-17.892 2.628,-6.336 11.448,-12.348 15.912,-19.404 4.284,-7.056 7.523,-20.268 10.115,-22.535 2.557,-2.232 3.996,10.476 5.437,8.964 1.332,-1.836 1.62,-13.464 3.096,-19.044 1.548,-5.652 4.608,-14.292 5.832,-13.969 0.972,0.504 -0.864,15.013 0.756,16.309 1.692,0.936 6.696,-8.46 9.324,-9.721 2.448,-1.331 3.276,3.385 5.832,2.341 2.556,-1.08 5.616,-3.889 9.324,-8.568 z"
           id="path30"
           inkscape:connector-curvature="0" />
        <path
           d="m 237.78,572.37 10.116,-7.776 c -5.4,5.616 -8.244,9.108 -8.532,10.872 -0.432,1.62 3.06,1.044 6.588,-0.756 3.456,-1.98 13.284,-10.116 14.364,-10.116 0.972,0.072 -1.872,3.528 -8.532,10.512 3.564,1.225 6.876,1.296 10.08,0.36 3.168,-1.116 6.516,-3.924 8.928,-6.192 2.376,-2.304 4.428,-7.271 5.04,-6.983 0.433,0.324 -2.844,7.56 -1.908,8.928 1.009,1.152 4.933,0.252 7.74,-1.188 2.736,-1.439 6.84,-3.527 8.568,-7.38 1.62,-3.924 0.252,-10.476 1.151,-15.912 0.9,-5.615 3.816,-13.896 3.889,-17.063 -0.145,-3.276 -4.393,-0.685 -4.284,-1.944 0.216,-1.368 4.86,-2.844 5.04,-5.832 -0.145,-3.204 -3.313,-9.756 -5.04,-12.42 -1.692,-2.628 -3.096,-0.288 -5.04,-3.132 -2.088,-3.096 -4.788,-9.828 -6.984,-14.364 -2.304,-4.607 -6.876,-12.672 -6.228,-12.815 0.54,-0.181 7.848,8.712 10.116,11.664 2.231,2.808 3.491,7.991 3.491,5.436 -0.071,-2.628 -4.283,-20.592 -3.888,-20.988 0.288,-0.468 3.384,12.564 5.832,18.252 2.448,5.58 5.112,14.797 8.532,15.156 3.24,0.145 7.271,-9.288 11.268,-13.571 3.996,-4.32 9.288,-6.769 12.42,-12.061 2.881,-5.58 2.845,-16.2 5.437,-20.196 2.592,-3.924 10.116,-0.468 10.08,-3.096 -0.288,-2.808 -4.933,-9.9 -10.872,-13.212 -5.868,-3.42 -15.084,-5.436 -24.048,-6.588 -9.181,-1.188 -22.068,-0.72 -29.916,-0.396 -7.849,0.181 -14.256,-0.792 -16.309,1.944 -2.088,2.7 4.896,14.148 3.889,14.364 -1.296,0.036 -5.761,-11.484 -10.477,-13.572 -4.68,-2.16 -15.048,-1.08 -17.1,1.152 -2.16,2.231 3.78,9.288 4.644,12.42 0.756,2.987 -2.304,2.34 0.396,5.832 2.628,3.456 7.812,8.244 15.552,14.76 2.772,7.452 6.084,13.536 10.476,18.648 4.284,5.111 9.288,8.855 15.156,11.628 -0.359,8.64 -1.404,16.668 -3.132,24.084 -1.872,7.416 -4.284,15.443 -7.38,20.195 -3.168,4.681 -7.813,6.3 -10.872,7.776 -3.06,1.368 -5.004,-0.18 -7.38,0.756 -2.484,0.9 -4.896,2.88 -7.38,4.68 -2.7,1.692 -6.624,3.78 -7.74,5.437 -1.008,1.548 0.756,3.348 1.548,3.852 0.65,0.464 1.549,0.033 2.701,-1.155 z"
           id="path32"
           inkscape:connector-curvature="0" />
        <path
           d="m 166.76,141.63 c -0.54,-1.224 -1.188,-3.312 -2.34,-3.888 -1.188,-0.684 -3.996,-0.684 -4.68,0 -0.756,0.576 -0.9,2.268 0.396,3.528 1.188,1.152 5.832,3.384 6.984,3.492 1.044,-0.108 0,-1.944 -0.36,-3.132 z"
           id="path34"
           inkscape:connector-curvature="0" />
        <path
           d="m 166.36,133.49 c -0.576,-1.188 -1.08,-1.836 -0.396,-2.34 0.648,-0.54 2.628,-1.62 4.284,-0.756 1.512,0.828 3.888,2.916 5.04,5.436 1.08,2.376 2.052,7.668 1.548,8.928 -0.684,1.044 -3.708,-0.72 -5.04,-1.944 -1.368,-1.296 -1.908,-3.456 -2.735,-5.076 -0.974,-1.692 -2.198,-3.06 -2.701,-4.248 z"
           id="path36"
           inkscape:connector-curvature="0" />
        <path
           d="m 176.84,130 c 0.468,-0.936 1.477,-1.296 2.736,-0.792 1.044,0.504 2.88,1.152 3.852,3.888 0.9,2.592 1.8,10.116 1.584,12.024 -0.396,1.764 -2.268,1.044 -3.527,-0.756 -1.332,-1.872 -3.492,-7.74 -4.248,-10.116 -0.792,-2.521 -0.829,-3.384 -0.397,-4.248 z"
           id="path38"
           inkscape:connector-curvature="0" />
        <path
           d="m 186.92,130.76 c 0.756,-0.252 3.888,0.576 5.076,1.944 1.224,1.26 2.016,3.348 1.944,5.436 -0.217,1.98 -2.232,6.228 -3.133,6.624 -1.044,0.324 -2.088,-2.988 -2.699,-4.68 -0.685,-1.872 -1.08,-4.284 -1.188,-5.832 -0.36,-1.729 -0.828,-3.168 0,-3.492 z"
           id="path40"
           inkscape:connector-curvature="0" />
      </g>
      <g
         id="g50"
         style="fill:#ffffff">
        <path
           d="m 239.73,161.83 12.456,8.172 c 1.115,5.472 2.844,9.9 5.039,13.572 2.196,3.528 2.916,6.12 8.137,8.172 5.184,1.98 14.688,3.42 22.536,3.888 7.596,0.396 14.651,0.072 23.688,-1.548 9.18,-1.836 22.645,-4.968 30.672,-8.964 7.776,-4.104 11.592,-8.964 16.308,-15.12 4.717,-6.192 8.46,-13.392 11.664,-21.744 3.996,-0.252 7.057,0.216 9.324,1.548 2.196,1.296 3.528,3.636 3.853,6.192 0.287,2.448 -1.08,6.732 -2.305,8.568 -1.368,1.692 -3.312,2.34 -5.832,1.944 1.44,1.332 1.656,2.268 0.792,3.096 -0.899,0.756 -3.023,1.224 -6.228,1.548 2.124,2.484 2.952,4.212 2.34,5.04 -0.612,0.828 -2.556,0.828 -5.832,0 0.468,2.52 0.252,4.068 -0.792,5.076 -1.08,0.9 -2.844,0.972 -5.436,0.36 0.144,2.232 -0.288,3.708 -1.152,4.284 -0.9,0.54 -2.376,0.324 -4.284,-0.792 -0.36,2.988 -1.08,4.752 -2.304,5.436 -1.332,0.612 -2.88,0.144 -5.076,-1.548 -0.9,2.448 -1.98,3.96 -3.096,4.68 -1.261,0.684 -2.412,0.324 -3.889,-0.792 -0.575,2.232 -1.655,3.708 -3.096,4.284 -1.584,0.54 -3.384,0.324 -5.832,-0.792 -1.979,2.304 -3.744,3.6 -5.436,3.888 -1.8,0.288 -3.168,-0.54 -4.645,-2.34 -1.224,1.764 -2.34,2.772 -3.888,2.736 -1.476,0.036 -3.204,-0.972 -5.04,-2.736 -1.944,3.348 -3.636,5.112 -5.076,5.436 -1.548,0.252 -2.844,-1.08 -3.888,-3.852 -2.448,2.052 -4.248,2.952 -5.796,3.096 -1.512,0.108 -2.556,-0.936 -3.132,-2.736 -2.412,2.196 -4.356,3.24 -5.437,3.132 -1.116,-0.144 -1.764,-1.44 -1.548,-3.888 -4.355,1.728 -7.2,2.412 -8.928,2.34 -1.765,-0.144 -2.017,-1.188 -1.152,-3.132 -4.104,2.088 -6.696,2.952 -8.172,2.736 -1.512,-0.252 -1.512,-1.728 -0.396,-4.284 -3.708,1.584 -6.301,2.232 -7.381,1.944 -1.115,-0.36 -1.115,-1.656 0.396,-3.888 -4.068,1.008 -6.516,1.224 -7.74,0.792 -1.188,-0.468 -0.936,-1.584 0.756,-3.492 -4.716,2.124 -7.739,3.024 -8.928,2.7 -1.224,-0.324 -0.756,-1.872 1.548,-4.644 -4.788,-0.216 -7.452,-0.828 -8.136,-1.548 -0.72,-0.792 0.576,-1.836 3.888,-3.132 -4.428,0.108 -7.02,0.108 -8.172,-0.396 -1.188,-0.396 -0.54,-1.296 1.548,-2.304 -3.492,-0.684 -5.436,-1.332 -5.832,-1.944 -0.504,-0.684 0.54,-1.332 3.132,-1.944 -3.096,-1.62 -4.607,-2.736 -4.68,-3.492 -0.107,-0.792 1.368,-1.188 4.284,-1.188 -1.224,-2.628 -1.656,-4.392 -1.152,-5.436 0.396,-1.044 1.729,-1.296 3.853,-0.756 -1.08,-1.872 -1.332,-3.204 -0.756,-4.284 0.578,-1.044 1.946,-1.692 4.251,-1.944 z"
           id="path44"
           inkscape:connector-curvature="0" />
        <path
           d="m 228.1,193.69 c -0.576,-3.096 -0.576,-5.472 0,-6.984 0.539,-1.656 1.943,-4.104 3.096,-2.34 0.972,1.836 1.872,11.664 3.096,12.816 1.152,0.9 2.628,-7.812 3.888,-6.984 1.116,0.72 1.836,10.656 3.133,11.628 1.296,0.9 3.132,-6.948 4.248,-6.192 0.972,0.72 0.144,10.188 1.548,10.476 1.296,0.18 4.716,-9.864 6.228,-9.324 1.404,0.54 1.116,11.412 2.34,12.06 1.08,0.324 3.456,-9.864 4.645,-9.324 1.151,0.468 1.008,12.24 2.34,12.816 1.296,0.54 4.032,-9.792 5.436,-9.324 1.188,0.468 1.044,11.88 2.341,12.024 1.26,-0.036 4.14,-12.42 5.436,-12.024 1.116,0.324 0.288,13.68 1.944,13.968 1.728,0.036 6.012,-12.708 8.136,-12.816 1.979,0.036 2.124,12.78 3.888,12.816 1.656,-0.108 3.996,-13.212 6.192,-13.212 2.124,-0.072 4.572,12.348 6.228,12.816 1.513,0.252 1.62,-10.404 3.097,-10.872 1.403,-0.468 3.672,8.136 5.436,7.776 1.692,-0.612 2.412,-11.088 4.68,-10.872 2.232,0.144 6.841,12.06 8.532,12.024 1.477,-0.18 -0.576,-11.772 0.792,-12.42 1.404,-0.756 5.616,8.892 7.38,8.532 1.548,-0.576 0.648,-10.404 2.305,-10.872 1.62,-0.36 5.651,8.928 7.379,8.568 1.585,-0.612 2.412,-4.356 2.341,-11.664 1.151,4.536 2.195,8.244 2.735,11.268 0.54,2.988 2.412,6.624 0.756,6.588 -1.836,-0.288 -9.107,-8.568 -11.268,-7.74 -2.052,0.9 -0.576,11.736 -1.548,12.78 -1.224,0.756 -4.14,-7.848 -5.436,-7.344 -1.225,0.54 -0.612,10.188 -2.34,10.476 -1.98,0.036 -7.093,-9.864 -8.929,-9.72 -1.908,0.216 -0.288,9.864 -1.943,10.476 -1.801,0.252 -5.94,-8.424 -8.137,-8.136 -2.231,0.36 -2.916,10.008 -4.68,10.08 -1.728,-0.18 -3.24,-10.476 -5.796,-10.476 -2.844,0 -7.884,10.296 -10.116,10.476 -2.124,0.036 -1.224,-9.756 -2.7,-10.08 -1.691,-0.468 -5.22,7.812 -6.983,7.776 -1.692,-0.144 -1.944,-7.956 -3.528,-8.172 -1.872,-0.252 -5.868,6.624 -6.984,6.588 -1.188,-0.252 1.116,-6.732 0.396,-7.38 -0.828,-0.684 -2.844,4.5 -4.645,3.888 -1.764,-0.72 -4.355,-7.56 -5.832,-7.74 -1.548,-0.144 -2.663,6.912 -3.491,6.588 -0.937,-0.576 -0.792,-8.172 -1.944,-9.324 -1.296,-1.044 -4.176,3.06 -5.436,2.736 -1.297,-0.54 -1.152,-4.572 -2.341,-5.436 -1.332,-0.936 -3.096,-0.684 -5.436,0.36 -1.944,-0.72 -3.708,-1.872 -5.437,-3.852 -1.803,-1.98 -3.387,-4.572 -5.042,-7.776 z"
           id="path46"
           inkscape:connector-curvature="0" />
        <path
           d="m 358.56,192.89 c -0.827,-2.088 -0.611,-3.204 0.792,-3.492 1.403,-0.288 6.265,2.772 7.381,1.944 0.863,-1.08 -2.988,-6.552 -1.549,-7.38 1.404,-0.828 8.748,3.6 10.08,2.736 1.188,-0.972 -3.023,-7.308 -2.34,-8.172 0.685,-0.9 5.76,3.708 6.624,2.736 0.756,-1.116 -1.944,-7.668 -1.584,-8.964 0.288,-1.368 2.88,2.592 3.888,1.188 0.937,-1.44 1.584,-4.68 1.944,-9.72 0.648,3.348 1.044,6.624 1.188,10.116 0.107,3.42 0.575,8.676 -0.396,10.476 -1.152,1.692 -4.572,-1.404 -5.832,-0.396 -1.296,0.828 -0.144,5.22 -1.548,5.832 -1.548,0.504 -6.408,-3.564 -7.38,-2.34 -0.972,1.224 -0.504,4.464 1.548,9.72 -2.521,-0.36 -4.896,-0.828 -6.984,-1.548 -2.232,-0.756 -4.032,-1.62 -5.832,-2.736 z"
           id="path48"
           inkscape:connector-curvature="0" />
      </g>
      <path
         d="m 376.82,199.52 c -2.808,0.72 -6.3,0.72 -10.476,0 -4.392,-0.864 -11.628,-4.176 -14.76,-4.68 -3.024,-0.576 -3.816,-1.728 -3.492,1.548 0.18,3.276 3.672,12.276 4.644,17.856 0.828,5.436 -0.252,12.024 0.792,14.76 0.937,2.628 1.549,3.168 5.437,0.792 3.888,-2.556 9.792,-7.596 17.855,-15.552 -8.64,4.824 -14.327,7.596 -17.063,8.172 -2.808,0.54 -2.916,-2.628 0.36,-4.644 3.312,-2.16 15.119,-5.364 19.044,-7.38 3.672,-1.98 3.815,-2.484 3.491,-4.284 -0.396,-1.836 -2.34,-4.032 -5.832,-6.588 z"
         id="path52"
         inkscape:connector-curvature="0"
         style="fill:#c83737" />
      <path
         d="m 373.32,204.95 c -0.648,-0.54 -5.977,-1.08 -9.324,-1.188 -3.528,-0.216 -9.288,-0.18 -10.477,0.396 -1.115,0.54 2.124,2.592 3.889,3.096 1.656,0.396 4.5,-0.324 6.191,-0.36 1.62,-0.144 1.765,-0.18 3.492,-0.396 1.621,-0.36 6.661,-1.152 6.229,-1.548 z"
         id="path54"
         inkscape:connector-curvature="0" />
      <g
         id="g64"
         style="fill:#c83737">
        <path
           d="m 377.97,197.57 c -0.792,-1.944 -0.216,-4.932 1.584,-6.624 1.692,-1.764 5.652,-3.708 8.532,-3.492 2.736,0.144 5.976,2.772 7.775,4.68 1.656,1.908 3.204,4.104 2.305,6.588 -1.044,2.34 -5.832,6.696 -8.136,7.38 -2.412,0.468 -3.853,-2.448 -5.832,-3.888 -2.16,-1.476 -5.4,-2.844 -6.228,-4.644 z"
           id="path56"
           inkscape:connector-curvature="0" />
        <path
           d="m 396.22,187.85 c -0.036,-0.216 0.612,-1.764 1.944,-4.644 1.332,-3.096 4.248,-9.216 5.832,-12.816 1.332,-3.6 1.548,-7.524 2.735,-8.172 1.08,-0.648 2.484,1.656 4.645,4.284 2.16,2.52 5.004,7.992 8.532,10.872 3.456,2.772 9.792,3.744 12.06,5.832 2.052,1.944 2.484,4.932 0.756,6.192 -1.764,1.116 -6.66,-0.54 -11.231,1.152 -4.824,1.656 -13.356,7.884 -16.704,8.964 -3.313,0.936 -4.176,-0.108 -2.736,-3.132 6.696,-3.708 10.404,-6.3 11.269,-7.38 0.756,-1.188 -5.257,1.116 -6.229,0.396 -1.08,-0.936 1.368,-5.256 0.396,-5.04 -1.116,0.36 -4.248,6.3 -6.192,6.984 -1.981,0.54 -3.529,-0.576 -5.077,-3.492 z"
           id="path58"
           inkscape:connector-curvature="0" />
        <path
           d="m 396.22,206.9 c 5.616,-3.132 12.349,-4.896 20.592,-5.436 8.208,-0.612 17.532,0.288 28.368,2.304 -6.84,0.936 -12.672,3.348 -17.496,7.38 -4.932,4.032 -8.676,9.504 -11.628,16.704 -4.14,-4.104 -8.063,-7.596 -12.06,-10.476 -3.996,-2.988 -10.368,-5.22 -11.628,-6.984 -1.26,-1.764 -0.108,-2.88 3.852,-3.492 z"
           id="path60"
           inkscape:connector-curvature="0" />
        <path
           d="m 385.35,210.75 c 1.872,5.4 2.988,11.268 3.889,17.892 0.792,6.624 1.151,14.904 0.792,21.348 -0.469,6.336 -1.584,11.592 -3.492,16.308 -3.384,-7.416 -8.172,-12.6 -14.761,-15.552 -6.623,-2.952 -14.651,-3.816 -24.479,-2.304 3.204,-6.588 6.012,-10.944 8.568,-13.212 2.556,-2.304 4.752,-0.54 6.588,-0.396 1.691,0.108 1.188,3.096 3.492,1.188 2.195,-2.16 6.407,-8.928 9.72,-13.212 3.275,-4.212 6.371,-8.28 9.683,-12.06 z"
           id="path62"
           inkscape:connector-curvature="0" />
      </g>
      <path
         d="m 164.02,155.63 c 1.8,0.648 5.292,1.116 10.476,1.548 5.22,0.324 11.988,0.576 20.592,0.756 2.952,2.556 4.896,5.868 5.832,10.512 0.864,4.608 0.54,9.648 -0.396,16.668 -1.08,6.948 -4.284,17.28 -5.437,24.48 -1.188,7.02 -1.656,10.152 -1.548,17.856 0,7.668 0.468,16.848 1.548,27.972 -5.868,-4.428 -11.771,-7.848 -17.855,-10.116 -6.192,-2.448 -12.132,-3.924 -18.648,-3.852 -6.624,0 -13.356,1.512 -20.592,4.248 -2.628,-5.904 -2.7,-14.4 -0.36,-26.028 2.34,-11.808 9.864,-32.688 14.364,-43.488 4.427,-10.8 8.387,-17.461 12.024,-20.556 z"
         id="path66"
         inkscape:connector-curvature="0"
         style="fill:#ffffff" />
      <path
         d="m 166.76,232.49 c -5.688,-13.824 -9.36,-25.02 -10.872,-34.164 -1.548,-9.18 0.036,-15.12 1.548,-20.196 1.404,-5.148 4.104,-10.26 6.984,-10.476 2.844,-0.36 6.156,2.484 10.08,8.532 4.572,-4.464 8.46,-6.48 11.664,-6.192 3.132,0.18 7.02,2.952 7.38,7.776 0.288,4.86 -1.008,11.664 -5.436,20.952 -4.535,9.252 -11.556,20.232 -21.348,33.768 z"
         id="path68"
         inkscape:connector-curvature="0" />
      <path
         d="m 166.76,228.25 c -4.319,-13.104 -7.128,-23.364 -8.568,-31.464 -1.44,-8.064 -1.26,-12.24 0,-16.704 1.116,-4.608 4.32,-10.512 6.984,-10.476 2.628,-0.036 5.437,3.456 8.568,10.476 5.976,-5.544 10.224,-8.208 13.176,-8.136 2.736,0.108 3.853,4.428 3.888,8.532 0.072,3.888 0.396,7.128 -3.491,15.156 -4.069,8.1 -10.872,18.648 -20.557,32.616 z"
         id="path70"
         inkscape:connector-curvature="0"
         style="fill:#c83737" />
      <path
         d="m 163.62,147.46 1.188,5.832 c 2.735,1.332 5.111,1.98 6.983,1.944 1.944,-0.108 4.608,-1.404 4.248,-2.34 -0.576,-1.008 -5.292,-2.628 -7.344,-3.492 -2.087,-0.936 -3.779,-1.584 -5.075,-1.944 z"
         id="path72"
         inkscape:connector-curvature="0"
         style="fill:#e0e0e0" />
      <path
         d="m 193.15,147.07 1.151,7.38 c -4.607,1.296 -7.487,1.692 -8.928,1.188 -1.44,-0.576 0.036,-2.7 0.396,-4.284 0.288,-1.656 0.252,-4.356 1.549,-5.04 1.223,-0.756 3.168,-0.504 5.832,0.756 z"
         id="path74"
         inkscape:connector-curvature="0"
         style="fill:#e0e0e0" />
      <g
         id="g82">
        <path
           d="m 249.45,147.07 c -1.116,-0.252 -5.904,-0.504 -14.904,-1.044 -9.036,-0.54 -21.744,-1.224 -38.664,-2.052 -0.756,0.576 -0.972,1.296 -0.936,2.16 0,0.828 0.54,1.692 1.332,2.736 4.752,0.576 11.376,1.152 20.268,1.332 8.856,0.18 19.548,0.18 32.508,0 0.828,1.152 1.872,1.8 2.736,1.944 0.864,0.108 2.412,-0.108 2.7,-1.188 0.18,-1.224 -0.792,-5.256 -1.548,-5.832 -0.791,-0.685 -2.087,-0.036 -3.492,1.944 z"
           id="path76"
           inkscape:connector-curvature="0" />
        <path
           d="m 208.55,151.24 c 0.864,1.584 1.152,2.988 0.864,4.212 -0.36,1.224 -1.152,2.052 -2.664,2.88 l 1.225,1.872 c 2.231,-0.937 3.743,-2.16 4.68,-3.528 0.899,-1.404 1.08,-3.096 0.684,-4.932 -1.585,-0.144 -3.169,-0.324 -4.789,-0.504 z"
           id="path78"
           inkscape:connector-curvature="0" />
        <path
           d="m 118.55,130.22 c 1.512,2.052 4.212,3.924 7.812,5.616 3.672,1.62 8.748,3.096 13.968,4.284 5.112,1.116 10.476,1.944 16.488,2.484 2.7,0.828 4.428,1.62 5.041,2.376 0.576,0.684 0.18,1.476 -1.332,2.088 l -11.161,-0.684 c -0.468,1.8 -0.396,3.204 -0.18,4.5 0.108,1.116 0.54,2.052 1.728,2.952 1.296,0.864 3.06,1.656 5.688,2.376 l -2.844,2.088 c -3.024,-0.612 -5.256,-1.908 -6.552,-3.888 -1.404,-2.052 -1.872,-4.68 -1.548,-8.028 -3.672,-1.512 -6.912,-2.088 -10.26,-1.584 -3.42,0.396 -6.588,2.304 -9.504,4.356 -2.952,2.016 -5.616,4.644 -7.992,7.884 -0.288,-5.22 -0.432,-9.9 -0.288,-14.436 0.072,-4.536 0.432,-8.532 0.936,-12.384 z"
           id="path80"
           inkscape:connector-curvature="0" />
      </g>
      <g
         id="g92"
         style="fill:#ffffff">
        <path
           d="m 155.88,160.67 c -6.732,6.588 -12.816,13.824 -18.648,22.14 -5.796,8.28 -12.996,20.304 -15.912,27.18 -3.096,6.768 -3.924,10.296 -1.944,13.212 1.98,2.7 6.588,3.996 13.968,3.492 4.752,-18.144 9.072,-32.364 12.816,-43.488 3.816,-11.088 6.876,-18.504 9.72,-22.536 z"
           id="path84"
           inkscape:connector-curvature="0" />
        <path
           d="m 200.92,160.67 4.645,-0.792 c 0.071,3.636 1.584,8.64 4.68,15.156 2.988,6.516 10.008,16.632 13.572,23.688 3.527,7.02 5.939,12.744 7.38,17.856 -11.304,4.896 -19.44,9.072 -25.236,12.816 -5.688,3.672 -8.712,6.732 -8.928,9.324 -0.864,-8.964 -0.828,-18.216 0.396,-28.332 1.152,-10.26 5.94,-23.472 6.588,-31.86 0.504,-8.352 -0.397,-14.256 -3.097,-17.856 z"
           id="path86"
           inkscape:connector-curvature="0" />
        <path
           d="m 366.34,253.27 c -0.792,1.368 -0.54,4.824 0.756,10.512 1.296,5.76 3.636,13.248 7.021,23.292 8.567,-2.196 17.136,-5.472 26.388,-10.116 9.144,-4.608 19.512,-9.972 28.332,-17.46 8.676,-7.668 16.523,-16.848 23.688,-27.972 l -24.443,-15.12 c -3.276,3.132 -5.868,6.156 -7.776,8.928 -1.979,2.844 -3.275,5.256 -3.888,7.776 -1.26,-2.124 -4.104,-4.932 -8.532,-8.568 -4.5,-3.672 -10.584,-8.064 -18.252,-13.176 2.592,7.344 3.708,15.912 3.492,25.992 -0.252,10.116 -1.98,21.313 -5.04,34.164 -3.708,-6.012 -7.2,-10.584 -10.872,-13.572 -3.71,-3.096 -7.202,-4.608 -10.874,-4.68 z"
           id="path88"
           inkscape:connector-curvature="0" />
        <path
           d="m 216.44,229.97 24.479,-14.364 c 9.685,4.752 19.368,8.1 29.88,10.476 10.477,2.196 18.828,4.068 32.256,3.132 13.248,-1.044 28.765,-3.924 46.98,-8.928 -1.44,4.176 -2.088,7.308 -1.549,9.684 0.469,2.268 1.837,3.744 4.248,4.284 l -10.871,18.648 h -10e-4 c 4.248,-1.332 8.137,-1.98 11.664,-1.944 3.528,-0.036 6.589,0.612 9.324,1.944 -0.036,6.372 0.792,12.528 2.34,18.9 1.513,6.3 3.889,12.42 6.984,18.648 l 12.816,-2.7 c 2.844,12.096 5.508,22.14 8.136,30.672 2.592,8.424 5.004,14.976 7.38,19.8 -6.66,4.32 -12.348,8.676 -17.46,13.212 -5.112,4.5 -10.872,7.309 -12.816,13.572 -1.943,6.12 -3.312,14.58 1.152,23.292 4.5,8.64 12.636,17.964 25.236,28.368 l 23.688,-16.309 c 2.952,3.637 4.896,7.345 5.832,11.269 0.937,3.888 0.756,7.848 -0.396,12.023 -13.717,4.429 -26.208,6.624 -38.053,6.589 -11.88,-0.181 -18.359,-7.416 -32.615,-6.984 -14.509,0.468 -36.648,9.216 -52.813,9.72 -16.235,0.216 -31.607,-5.903 -43.487,-7.38 -11.952,-1.44 -15.876,1.692 -27.181,-1.151 -11.447,-3.097 -26.531,-11.089 -40.392,-16.345 -13.968,-5.256 -34.884,-9.288 -42.336,-14.724 -7.488,-5.437 -5.22,-8.064 -1.944,-17.893 3.276,-10.08 13.645,-27.396 21.384,-41.544 7.704,-14.256 17.101,-28.907 24.444,-42.695 7.272,-13.896 14.508,-28.872 18.648,-39.24 3.999,-10.332 5.547,-17.532 5.043,-22.032 z"
           id="path90"
           inkscape:connector-curvature="0" />
      </g>
      <path
         d="m 237.42,301.61 c -7.092,-7.776 -11.88,-16.957 -14.363,-27.937 -2.557,-11.196 -4.393,-30.06 -0.792,-37.692 3.563,-7.596 17.1,-8.568 22.14,-7.38 4.932,1.152 7.344,5.904 7.38,14.4 7.596,-6.408 13.932,-9.468 19.008,-9.72 4.968,-0.252 10.944,1.44 11.269,8.532 0.216,7.128 -2.269,23.22 -9.685,33.408 -7.524,9.973 -19.045,18.72 -34.957,26.389 z"
         id="path94"
         inkscape:connector-curvature="0" />
      <path
         d="m 237.82,296.97 c -5.437,-5.112 -8.928,-12.132 -10.908,-21.744 -2.016,-9.648 -3.24,-28.008 -0.756,-35.352 2.52,-7.416 11.448,-10.08 15.516,-8.532 3.996,1.548 6.624,7.452 8.172,17.856 8.316,-7.128 15.049,-11.268 20.196,-12.42 5.076,-1.224 10.512,-0.612 10.476,5.436 -0.144,6.084 -4.176,21.348 -11.268,30.672 -7.201,9.18 -17.533,17.064 -31.428,24.084 z"
         id="path96"
         inkscape:connector-curvature="0"
         style="fill:#c83737" />
      <path
         d="m 289.44,237.17 c -2.124,15.552 -3.708,28.764 -5.04,40.752 -1.368,11.844 -2.232,21.636 -2.736,29.916 2.34,-14.508 4.104,-27.36 5.437,-39.24 1.258,-11.916 2.087,-22.212 2.339,-31.428 z"
         id="path98"
         inkscape:connector-curvature="0" />
      <path
         d="m 294.09,236.78 c -2.124,15.516 -3.708,28.836 -5.04,40.788 -1.296,11.879 -2.195,21.564 -2.7,29.879 2.341,-14.544 4.104,-27.288 5.437,-39.204 1.295,-11.915 2.015,-22.175 2.303,-31.463 z"
         id="path100"
         inkscape:connector-curvature="0" />
      <path
         d="m 283.25,322.2 c -2.088,22.392 -3.78,41.76 -5.076,58.932 -1.296,17.064 -2.195,31.32 -2.699,43.2 2.34,-20.916 4.104,-39.528 5.436,-56.664 1.259,-17.136 2.087,-32.112 2.339,-45.468 z"
         id="path102"
         inkscape:connector-curvature="0" />
      <path
         d="m 278.97,319.5 c -2.124,22.428 -3.708,41.688 -5.04,58.896 -1.367,17.064 -2.231,31.32 -2.735,43.2 2.34,-20.916 4.104,-39.527 5.436,-56.664 1.259,-17.172 2.087,-32.041 2.339,-45.432 z"
         id="path104"
         inkscape:connector-curvature="0" />
      <path
         d="m 197.43,302.01 c 16.38,-0.108 31.465,0.72 45.828,2.34 14.363,1.62 27.288,4.032 39.601,7.38 -24.48,-2.808 -43.488,-4.968 -57.853,-6.624 -14.292,-1.692 -23.435,-2.628 -27.576,-3.096 z"
         id="path106"
         inkscape:connector-curvature="0" />
      <path
         d="m 287.11,310.54 c 16.38,-0.108 31.464,0.72 45.827,2.34 14.363,1.62 27.288,4.032 39.601,7.38 -24.48,-2.808 -43.488,-5.004 -57.853,-6.588 -14.292,-1.656 -23.436,-2.7 -27.575,-3.132 z"
         id="path108"
         inkscape:connector-curvature="0" />
      <path
         d="m 287.11,315.22 c 16.38,-0.107 31.464,0.72 45.827,2.34 14.363,1.62 27.288,4.032 39.601,7.38 -24.48,-2.808 -43.488,-4.968 -57.853,-6.624 -14.292,-1.692 -23.436,-2.629 -27.575,-3.096 z"
         id="path110"
         inkscape:connector-curvature="0" />
      <path
         d="m 305,305.9 c -6.012,-7.56 -9.684,-13.932 -10.872,-19.404 -1.188,-5.508 0.756,-11.628 3.492,-13.212 2.592,-1.62 6.552,-0.504 12.023,3.492 2.881,-3.384 5.725,-4.716 8.532,-4.284 2.772,0.432 7.488,3.6 8.172,6.984 0.648,3.348 -0.828,8.316 -4.283,12.816 -3.672,4.465 -9.18,8.82 -17.064,13.608 z"
         id="path112"
         inkscape:connector-curvature="0" />
      <path
         d="m 305.61,302.8 c -4.933,-6.228 -7.885,-11.376 -8.856,-15.84 -0.971,-4.464 0.576,-9.432 2.844,-10.728 2.16,-1.404 5.292,-0.324 9.828,2.844 2.305,-2.736 4.716,-3.852 6.948,-3.492 2.232,0.252 6.012,3.024 6.624,5.688 0.504,2.7 -0.648,6.732 -3.456,10.44 -2.989,3.636 -7.489,7.2 -13.932,11.088 z"
         id="path114"
         inkscape:connector-curvature="0"
         style="fill:#c83737" />
      <path
         d="m 213.34,373.87 c -6.012,-7.633 -9.684,-13.969 -10.872,-19.44 -1.188,-5.544 0.756,-11.556 3.492,-13.176 2.592,-1.62 6.552,-0.504 12.024,3.492 2.952,-3.385 5.76,-4.717 8.567,-4.284 2.807,0.433 7.416,3.6 8.137,6.983 0.611,3.349 -0.757,8.316 -4.248,12.816 -3.6,4.465 -9.251,8.821 -17.1,13.609 z"
         id="path116"
         inkscape:connector-curvature="0" />
      <path
         d="m 250.24,348.99 c -6.012,-7.561 -9.685,-13.933 -10.872,-19.404 -1.188,-5.508 0.756,-11.628 3.492,-13.212 2.592,-1.62 6.552,-0.504 12.023,3.492 2.88,-3.313 5.725,-4.681 8.532,-4.248 2.772,0.432 7.488,3.6 8.172,6.983 0.648,3.349 -0.828,8.316 -4.284,12.816 -3.671,4.465 -9.179,8.856 -17.063,13.573 z"
         id="path118"
         inkscape:connector-curvature="0" />
      <path
         d="m 250.85,345.89 c -4.933,-6.156 -7.885,-11.376 -8.856,-15.804 -0.972,-4.536 0.576,-9.468 2.844,-10.764 2.16,-1.404 5.292,-0.324 9.828,2.844 2.304,-2.7 4.716,-3.853 6.948,-3.456 2.231,0.36 6.012,2.952 6.624,5.688 0.504,2.7 -0.648,6.732 -3.456,10.44 -2.989,3.599 -7.489,7.236 -13.932,11.052 z"
         id="path120"
         inkscape:connector-curvature="0"
         style="fill:#c83737" />
      <path
         d="m 240.52,409.18 c -6.013,-7.56 -9.685,-13.932 -10.872,-19.404 -1.188,-5.508 0.756,-11.628 3.491,-13.212 2.593,-1.62 6.553,-0.504 12.024,3.492 2.952,-3.312 5.76,-4.68 8.568,-4.248 2.808,0.432 7.416,3.601 8.136,6.984 0.612,3.348 -0.756,8.315 -4.248,12.815 -3.599,4.465 -9.252,8.857 -17.099,13.573 z"
         id="path122"
         inkscape:connector-curvature="0" />
      <path
         d="m 241.17,406.09 c -4.932,-6.156 -7.884,-11.376 -8.855,-15.804 -0.973,-4.536 0.575,-9.469 2.844,-10.765 2.052,-1.403 5.364,-0.324 9.792,2.844 2.34,-2.735 4.607,-3.852 6.948,-3.491 2.304,0.359 6.048,2.916 6.659,5.724 0.505,2.736 -0.611,6.66 -3.491,10.404 -2.989,3.636 -7.489,7.2 -13.897,11.088 z"
         id="path124"
         inkscape:connector-curvature="0"
         style="fill:#c83737" />
      <path
         d="m 189.8,341.25 c -3.06,-7.128 -4.428,-12.601 -4.248,-17.101 0.216,-4.464 2.988,-8.676 5.4,-9.323 2.304,-0.721 5.076,1.044 8.46,5.147 2.952,-1.908 5.292,-2.448 7.416,-1.476 2.052,0.972 4.896,4.248 4.788,7.056 -0.216,2.736 -2.376,6.12 -5.94,8.892 -3.744,2.664 -8.892,4.788 -15.876,6.805 z"
         id="path126"
         inkscape:connector-curvature="0" />
      <path
         d="m 167.26,386.68 c -2.987,-7.128 -4.536,-12.6 -4.248,-17.1 0.181,-4.464 3.061,-8.677 5.437,-9.324 2.304,-0.72 5.076,1.044 8.46,5.147 2.808,-1.907 5.4,-2.447 7.38,-1.476 1.944,0.972 4.968,4.248 4.788,7.056 -0.216,2.736 -2.376,6.12 -5.94,8.893 -3.744,2.664 -8.893,4.788 -15.877,6.804 z"
         id="path128"
         inkscape:connector-curvature="0" />
      <path
         d="m 298.37,227.85 21.384,-1.944 c 1.584,7.092 1.836,12.564 0.756,17.1 -1.115,4.356 -3.527,7.452 -7.38,9.288 -4.536,-3.276 -8.027,-6.768 -10.476,-10.872 -2.52,-4.176 -3.852,-8.568 -4.284,-13.572 z"
         id="path130"
         inkscape:connector-curvature="0" />
      <path
         d="m 372.53,284.15 c -3.061,-3.06 -5.904,-4.608 -8.929,-5.04 -3.096,-0.432 -7.416,-0.18 -8.928,2.7 -1.656,2.844 -2.124,8.748 0,13.968 2.088,5.039 6.408,10.439 12.816,16.344 2.664,-0.433 5.076,-2.772 7.38,-7.021 2.231,-4.319 4.355,-10.476 6.228,-18.612 l -7.38,2.304 c -0.395,-1.547 -0.791,-3.095 -1.187,-4.643 z"
         id="path132"
         inkscape:connector-curvature="0" />
      <path
         d="m 384.2,351.33 c 0.827,-2.736 0.144,-5.364 -2.341,-8.172 -2.556,-2.916 -7.812,-7.236 -12.42,-8.532 -4.68,-1.368 -11.195,-1.477 -15.12,0.792 -3.995,2.304 -6.804,6.479 -8.567,12.815 -7.236,-10.151 -13.824,-15.804 -20.196,-17.1 -6.516,-1.296 -15.012,2.736 -17.855,9.324 -2.88,6.516 -5.832,17.136 1.151,29.52 7.093,12.384 20.412,26.641 40.788,43.884 6.084,-3.96 11.269,-7.848 15.552,-11.663 4.248,-3.889 7.561,-7.597 10.08,-11.269 -3.239,-4.355 -5.004,-8.712 -5.436,-13.212 -0.576,-4.644 0.324,-9.072 2.7,-13.572 2.448,-4.463 6.192,-8.603 11.664,-12.815 z"
         id="path134"
         inkscape:connector-curvature="0" />
      <g
         id="g144"
         style="fill:#f0eeb7">
        <path
           d="m 444.78,372.71 c -0.648,-0.756 -4.645,2.196 -12.528,9.144 -7.992,6.948 -19.188,17.46 -34.416,32.076 -7.992,-5.508 -13.932,-10.584 -18.252,-15.768 -4.32,-5.292 -5.94,-10.765 -7.344,-15.048 -1.584,-4.284 -1.836,-6.912 -1.44,-10.404 0.396,-3.708 1.584,-7.884 3.96,-10.729 2.269,-2.987 6.372,-6.191 9.828,-6.119 3.384,0.144 6.984,3.455 10.404,7.164 3.24,3.563 8.676,9.323 9.504,14.363 0.684,4.933 -2.269,12.276 -4.68,15.229 -2.484,2.844 -6.12,2.88 -9.648,1.764 -3.672,-1.332 -9.288,-5.112 -11.304,-9.108 -1.98,-4.031 -0.792,-11.592 -0.181,-14.903 0.576,-3.492 1.729,-5.292 3.744,-5.544 1.836,-0.324 5.437,1.691 7.884,3.96 2.305,2.231 6.084,5.651 6.48,9.144 0.252,3.456 -2.16,10.116 -4.32,11.088 -2.231,0.685 -7.056,-3.924 -8.784,-6.443 -1.836,-2.557 -2.231,-7.272 -1.764,-8.604 0.432,-1.296 3.132,-0.972 4.645,0.54 1.403,1.296 3.779,7.056 3.924,7.704 -0.072,0.54 -2.592,-3.888 -3.384,-3.96 -0.757,-0.072 -1.656,1.979 -0.9,3.24 0.72,1.008 4.248,3.996 5.184,3.42 0.721,-0.612 0.648,-4.645 -0.359,-6.84 -1.225,-2.305 -3.96,-6.013 -5.725,-6.805 -1.728,-0.936 -3.672,0.072 -4.283,1.62 -0.721,1.44 -0.792,4.536 0.359,7.344 1.116,2.736 4.284,7.2 6.444,8.965 2.052,1.619 4.212,2.088 6.084,0.72 1.872,-1.512 4.5,-6.192 4.824,-9.324 0.144,-3.276 -1.549,-6.516 -3.564,-9.324 -2.124,-2.771 -6.156,-5.939 -8.784,-7.164 -2.735,-1.332 -5.399,-2.195 -7.164,-0.359 -1.872,1.908 -3.06,7.487 -3.42,11.483 -0.396,3.925 -2.376,7.164 1.261,11.809 3.6,4.572 10.26,9.72 20.268,15.588 11.196,-9.612 20.412,-16.561 28.476,-21.672 7.919,-5.043 14.147,-7.743 18.971,-8.247 z"
           id="path136"
           inkscape:connector-curvature="0" />
        <path
           d="m 388.08,352.48 c 5.328,-4.536 11.52,-8.964 19.008,-13.571 7.488,-4.681 16.056,-8.965 25.272,-13.969 9.107,-5.184 21.779,-11.844 28.728,-15.947 6.768,-4.068 10.548,-6.732 11.628,-8.137 3.744,3.564 6.984,5.58 10.116,6.192 3.023,0.54 8.1,-0.216 8.136,-2.7 -0.036,-2.556 -2.7,-6.696 -8.136,-12.42 2.736,-4.392 7.056,-9 12.816,-14.364 5.832,-5.544 14.472,-13.644 21.743,-17.496 7.164,-3.852 14.652,-6.408 20.952,-5.04 6.12,1.368 13.104,8.136 15.948,13.212 2.808,5.076 3.708,10.836 0.756,16.704 -3.204,5.688 -11.664,12.204 -19.404,17.459 -7.956,5.148 -17.855,9.072 -27.18,13.572 -9.288,4.428 -18.468,8.568 -27.972,12.816 0.18,-5.328 -0.504,-9.576 -2.34,-13.176 -1.908,-3.564 -7.488,-7.956 -8.532,-8.173 -1.116,-0.359 1.332,3.853 2.34,6.229 0.936,2.304 3.204,4.284 3.888,7.74 0.612,3.456 0.612,7.596 0,12.815 -10.439,6.769 -18.288,12.42 -23.688,17.101 -5.4,4.681 -5.616,8.027 -8.568,10.872 -3.132,2.592 -7.308,3.563 -9.324,5.436 -1.979,1.872 2.484,2.016 -2.304,5.832 -4.968,3.78 -13.716,9.216 -26.784,16.704 2.736,-6.192 3.816,-11.628 3.097,-16.704 -0.792,-5.22 -4.032,-10.08 -7.381,-13.608 -3.419,-3.562 -7.595,-5.974 -12.815,-7.379 z"
           id="path138"
           inkscape:connector-curvature="0" />
        <path
           d="m 537.59,308.6 c 0.18,2.484 1.08,5.256 2.7,8.172 1.656,2.916 3.888,5.977 6.983,9.324 -9.035,2.592 -18.432,5.004 -28.331,7.38 -10.044,2.34 -24.517,4.68 -31.068,6.588 -6.552,1.836 -9.216,3.168 -8.136,4.284 l 1.548,-12.024 c 15.84,-6.228 27.288,-10.764 35.315,-13.607 7.704,-2.952 8.172,-1.8 11.664,-3.492 3.529,-1.729 6.589,-3.889 9.325,-6.625 z"
           id="path140"
           inkscape:connector-curvature="0" />
        <path
           d="m 473.12,340.85 c -3.744,0.937 -8.064,3.78 -12.816,8.532 -4.824,4.788 -10.08,11.196 -15.912,19.8 6.769,-4.859 12.24,-9 17.101,-12.42 4.68,-3.492 8.424,-6.12 11.231,-8.172 0.108,-2.556 0.252,-5.149 0.396,-7.74 z"
           id="path142"
           inkscape:connector-curvature="0" />
      </g>
      <path
         d="m 471.96,395.97 c -5.544,3.024 -9.9,6.3 -13.212,10.116 -3.42,3.672 -6.264,7.992 -6.588,12.42 -0.433,4.428 1.116,9.828 4.644,13.968 3.456,4.068 8.893,7.309 16.309,10.116 -7.74,-6.12 -12.528,-11.952 -14.364,-17.496 -1.908,-5.76 0.792,-11.016 3.096,-15.912 2.231,-4.896 5.472,-9.252 10.115,-13.212 z"
         id="path146"
         inkscape:connector-curvature="0"
         style="fill:#e0e0e0" />
      <path
         d="m 442.05,264.75 c -0.576,1.764 -3.168,3.996 -7.776,6.984 -4.752,2.88 -11.34,6.372 -20.159,10.476 1.764,2.556 3.348,4.5 5.04,5.832 1.584,1.26 3.132,1.908 4.644,1.943 7.884,-5.543 11.88,-8.136 12.42,-7.775 0.36,0.36 -9.396,8.28 -9.684,9.72 -0.288,1.152 7.199,-2.556 7.739,-1.944 0.396,0.685 -4.392,2.664 -5.04,5.797 -0.72,3.096 -0.144,9.323 1.188,12.455 1.26,2.988 3.456,4.753 6.588,5.437 0.396,-7.344 2.34,-13.176 6.229,-17.892 3.852,-4.717 11.304,-8.532 16.668,-10.081 5.256,-1.656 9.863,-1.476 14.399,0.396 -3.528,-3.24 -7.271,-5.004 -11.664,-5.436 -4.536,-0.468 -12.563,3.168 -14.364,2.7 -1.691,-0.612 4.86,-5.076 4.248,-6.192 -0.827,-1.152 -7.56,0.108 -8.531,-0.792 -0.937,-1.044 2.987,-3.096 2.735,-5.04 -0.396,-1.944 -1.907,-4.14 -4.68,-6.588 z"
         id="path148"
         inkscape:connector-curvature="0"
         style="fill:#ffffff" />
    </g>
    <text
       style="line-height:0%;font-family:sans-serif;letter-spacing:0px;word-spacing:0px;fill:#000000"
       xml:space="preserve"
       line-height="0%"
       y="915.2193"
       x="-248.8557"
       id="text154"><tspan
         font-size="35px"
         line-height="1.25"
         y="915.2193"
         x="-248.8557"
         id="tspan152"
         style="font-size:35px;line-height:1.25"> </tspan></text>
    <text
       style="line-height:0%;font-family:sans-serif;letter-spacing:0px;word-spacing:0px;fill:#000000"
       xml:space="preserve"
       transform="scale(1.129,0.88578)"
       line-height="0%"
       y="1033.6305"
       x="-256.67773"
       id="text168"><g
         font-size="34.163px"
         id="g166"
         style="font-size:34.1629982px;font-family:Purisa"><tspan
           line-height="1.25"
           y="1033.6305"
           x="-256.67773"
           id="tspan156"
           style="line-height:1.25;fill:#33373b">Get instant</tspan><tspan
           line-height="1.25"
           y="1076.3345"
           x="-256.67773"
           id="tspan158"
           style="line-height:1.25;fill:#33373b"> access to</tspan><tspan
           line-height="1.25"
           y="1119.0383"
           x="-256.67773"
           id="tspan162"
           style="line-height:1.25"> our <tspan
   font-weight="bold"
   font-size="34.163px"
   id="tspan160"
   style="font-weight:bold;font-size:34.1629982px;font-family:Purisa;fill:#c83737">FREE</tspan></tspan><tspan
           line-height="1.25"
           y="1161.7423"
           x="-256.67773"
           id="tspan164"
           style="line-height:1.25;fill:#33373b">worksheets!</tspan></g></text>
    <g
       transform="matrix(1.4946,0,0,-1.3333,-1147.9,1091.1)"
       id="g204">
      <g
         transform="scale(0.1)"
         id="g202"
         style="fill:#3d3e40">
        <path
           d="m 6524.8,1770.5 c 2.8282,6.5219 7.0836,17.969 12.084,28.491 -2.4718,-3.8223 -4.4256,-8.0004 -6.4033,-12.665 -2.1337,-4.6235 -4.0766,-9.7886 -5.6809,-15.827"
           id="path170"
           inkscape:connector-curvature="0" />
        <path
           d="m 6537,1799.2 0.062,0.1653 -0.1796,-0.3667 0.1173,0.2014"
           id="path172"
           inkscape:connector-curvature="0" />
        <path
           d="m 7609.5,1829.4 c -2.7547,2.0544 -5.8853,4.3944 -9.0721,6.7661 3.039,-2.2695 6.0969,-4.5484 9.0721,-6.7661"
           id="path174"
           inkscape:connector-curvature="0" />
        <path
           d="m 7003.3,1989.3 2.2412,-0.063 c 6.7195,-9.2293 6.5669,-11.301 6.8695,-12.752 0.2012,-1.5315 0.7929,-2.5507 4.4635,-12.488 2.3988,-3.9854 5.0373,-14.023 5.9707,-23.607 1.1781,-9.6392 0.654,-18.648 0.8825,-22.418 -0.1082,0.097 -0.3654,-2.536 -0.7675,-5.0479 -0.5946,-2.4402 -1.1882,-4.7967 -1.4985,-4.3966 0.7213,-3.3977 -2.0583,-10.315 -4.5222,-15.912 -0.6046,-2.21 1.0136,1.3357 2.1245,2.7212 0,0 -0.3608,-0.8229 -0.8881,-2.0655 -0.5647,-1.2215 -1.1272,-2.9599 -2.0553,-4.4886 -1.5578,-3.2419 -3.6337,-6.2056 -3.6238,-6.2069 -3.7052,-4.3019 -5.225,-4.7356 -1.5686,0.038 -5.2798,-7.2895 -18.857,-20.962 -44.173,-28.127 -12.386,-3.6637 -27.158,-5.6066 -42.553,-5.3185 -15.286,0.3444 -31.632,3.0547 -44.831,8.6672 -6.4163,2.7415 -12.321,6.3033 -15.036,9.4246 -1.5845,1.5205 -2.1313,2.7275 -2.354,3.3328 l -0.1398,1.3852 c -0.1798,1.1585 2.0047,5.5555 5.7522,9.7963 3.7889,4.3262 8.7321,8.7601 14.208,12.643 10.749,7.9189 22.487,14.233 32.518,19.237 10.056,5.0388 18.687,8.7567 24.728,11.34 -6.7067,-1.5967 -21.068,-8.8368 -27.056,-10.261 11.858,6.8463 18.449,8.3282 23.744,11.53 5.6439,0.1927 28.92,10.854 39.399,11.913 l 3.2967,2.3546 6.7318,1.1758 c 29.473,9.0039 33.167,9.3269 35.693,10.049 2.62,0.4388 4.335,1.0515 31.33,5.9574 31.208,5.7254 46.045,8.6985 63.579,9.4847 -2.5916,-0.147 -9.5963,0.1244 -1.4669,1.0369 1.4609,-0.9302 21.666,2.1308 25.639,0.904 7.9967,0.5952 33.497,-0.5423 24.918,1.328 4.3851,-0.7849 26.807,-3.0872 13.366,-2.5893 7.6025,-0.6337 14.801,-1.8043 20.2,-2.2459 l -9.5358,1.7285 c 25.364,-3.0854 38.048,-7.9407 53.207,-12.153 l -8.2198,3.6738 c 14.056,-4.3891 24.358,-10.325 28.249,-14.318 0,0 -3.1288,1.666 -6.3277,3.2596 -3.1029,1.7099 -6.5342,2.9942 -6.5342,2.9942 10.48,-5.0405 18.376,-9.7165 24.762,-15.13 6.5586,-5.2549 12.202,-10.717 17.596,-18.068 0,0 -0.8997,1.3595 -1.7894,2.7187 -0.8778,1.3727 -2.0134,2.5506 -2.0134,2.5506 3.7932,-4.1968 11.564,-14.018 16.486,-28.379 4.3777,-12.296 4.4251,-33.095 0.7706,-53.054 -3.4629,-20.189 -10.298,-40.091 -17.207,-55.672 -6.9645,-15.616 -13.998,-26.946 -17.12,-32.176 0,0 1.9082,2.076 3.6773,4.3208 1.7958,2.2179 3.5912,4.4319 3.5912,4.4319 0,0 -2.7207,-4.5621 -5.4409,-9.1201 -2.8316,-4.4849 -5.9234,-8.7256 -5.9239,-8.7295 1.6898,1.8728 2.9802,10.422 4.4762,11.821 -3.2478,-4.5045 -8.1042,-11.566 -15.212,-19.103 -7.0464,-7.5293 -16.461,-15.498 -27.608,-20.85 -5.5949,-2.496 -11.559,-4.1987 -17.734,-4.743 -3.0896,-0.3283 -6.2272,-0.1036 -9.4345,0.1273 -3.4867,0.7127 -7.5247,0.9937 -10.854,2.1305 -14.624,3.6026 -24.265,11.03 -27.486,22.921 -3.623,12.13 -0.7906,28.765 4.7674,43.508 5.6526,14.923 13.724,28.689 22.17,40.013 8.4252,11.401 17.282,20.416 24.932,26.633 7.8312,6.3686 13.495,9.4627 18.375,11.359 15.431,5.8661 3.4745,-0.5767 3.4245,-0.8023 18.13,8.1263 7.1513,5.1157 23.661,9.9095 4.5653,1.1148 -0.6802,-1.1791 -3.1476,-2.0667 7.1892,2.1946 13.885,3.935 14.441,4.3256 -9.2822,-1.8507 -5.7146,0.4167 -9.8565,0.293 0,0 1.3422,0.3865 3.3661,0.9706 1.9899,0.6319 4.6912,1.3817 7.5262,1.7679 5.5974,0.9866 11.185,1.9785 11.185,1.9785 l -0.8312,-1.0996 c 4.8779,1.0383 12.29,4.8466 35.064,5.7477 38.454,1.0211 80.916,-4.2758 118.99,-14.158 -0.7292,-0.404 -8.8445,1.158 -16.948,2.7344 5.1123,-1.235 12.958,-2.9287 17.572,-4.4246 -4.4966,1.5429 -0.4377,0.8102 3.8321,-0.1592 4.2368,-1.1425 8.6977,-2.4215 5.1898,-1.1827 28.56,-5.1586 62.933,-20.462 86.017,-30.729 1.5724,0.679 17.332,2.0061 34.066,2.8505 16.206,0.1999 33.498,-0.3103 34.09,0.3598 7.0396,-5.3548 14.028,-10.714 16.041,-12.501 -1.4935,1.675 -15.031,12.899 -22.906,17.501 l -2.0482,-0.2339 c -17.901,10.714 -3.5348,3.7098 -21.111,13.829 -0.332,1.687 15.92,-7.6895 29.744,-17.124 -12.362,8.5117 -24.579,17.202 -30.535,18.851 -11.972,7.1126 2.0083,0.3895 -12.502,8.9014 -10.856,4.944 -25.212,11.115 -37.627,16.549 l 0.2928,0.079 c -30.223,13.574 -47.808,15.987 -76.558,24.599 l 3.2464,-0.3935 c -5.1047,1.5215 -12.811,3.2756 -21.555,5.2736 -8.8119,1.7114 -18.757,3.316 -28.171,5.3554 5.3828,-1.1719 9.9339,-2.7614 -1.4573,-0.8758 -10.956,1.6638 -20.227,2.8054 -28.765,3.7595 -8.6365,0.5182 -16.501,0.998 -24.649,1.8571 l -15.775,-1.0648 c -4.9021,-0.1525 -10.67,0.089 -17.289,-0.4633 -6.6281,-0.6186 -14.043,-1.3138 -22.151,-2.0626 -8.1079,-1.2069 -16.911,-3.019 -26.266,-4.735 -9.2761,-2.6443 -19.268,-5.1345 -29.353,-9.0156 -9.8993,-4.4612 -20.497,-7.9438 -31.752,-15.646 -10.66,-7.1631 -19.796,-15.546 -28.16,-24.654 -16.629,-18.298 -30.482,-39.407 -40.281,-63.504 -4.8123,-12.075 -8.5841,-24.978 -10.061,-38.987 -1.5174,-13.858 -0.2001,-29.623 6.4684,-44.432 6.5865,-14.971 19.493,-26.617 32.032,-33.021 12.727,-6.5861 25.016,-9.2338 36.491,-10.867 12.933,-1.6687 25.696,-0.037 36.569,3.3148 10.879,3.4019 20.281,8.1458 27.838,13.357 15.412,10.306 24.983,21.221 31.832,29.083 l -2.0447,-2.5745 c 20.917,24.193 39.652,58.358 51.042,99.392 5.5332,20.589 9.5824,42.848 8.0764,67.725 -0.38,6.2122 -1.3619,12.677 -2.8303,19.278 -0.9314,3.259 -1.8668,6.9452 -3.023,9.8758 l -3.5414,8.7772 c -5.0993,11.568 -11.742,22.832 -20.21,32.566 -16.516,20.062 -38.803,33.537 -60.696,42.437 -22.132,8.6168 -44.357,13.096 -65.385,15.491 -42.134,4.4184 -79.755,1.3839 -109.42,-2.4929 -18.561,-1.0791 -43.701,-5.5331 -62.585,-9.3666 10.576,1.7947 7.1258,0.34 -1.0485,-1.3706 -28.643,-6.3123 -29.468,-7.216 -30.467,-7.5965 -1.0642,-0.7259 -1.8245,-0.6023 -30.796,-9.7076 -16.376,-6.0762 -43.529,-15.54 -75.543,-32.558 -15.849,-8.8058 -33.179,-18.814 -49.104,-36.443 -3.9711,-4.3303 -7.6765,-9.7035 -10.888,-15.765 -3.0302,-6.2943 -5.6353,-13.571 -5.8933,-21.941 -0.2901,-8.3065 1.9054,-16.887 5.6604,-23.817 3.7272,-7.0638 8.7013,-12.477 13.768,-16.806 10.251,-8.8401 21.153,-13.743 31.844,-17.72 10.728,-3.8528 21.403,-6.1956 31.881,-7.666 20.956,-2.933 41.156,-2.2003 59.469,0.9724 18.307,3.126 34.732,8.9588 47.866,16.145 13.201,7.0866 23.01,15.366 29.258,21.893 13.028,14.403 23.584,34.833 26.989,55.732 3.9211,20.909 1.6808,41.217 -2.1582,57.822 l 1.0134,-3.3252 c -0.8681,4.5791 -2.4683,11.556 -5.142,20.64 -3.268,9.3957 -7.4717,20.948 -15.499,32.265 -7.7262,11.383 -18.52,22.607 -31.504,31.449 -12.946,8.9752 -27.807,15.371 -42.77,19.841 -30.094,8.9703 -60.587,10.195 -85.495,9.3277 -24.955,-1.074 -44.633,-4.2711 -54.564,-6.0684 l 5.4011,0.6464 c -17.311,-3.297 -24.681,-4.9523 -31.278,-6.0278 -6.5543,-1.2062 -12.291,-1.8709 -25.714,-5.4413 3.887,-0.4306 -24.614,-10.099 -35.236,-14.606 l 0.2777,0.4989 c -8.0948,-3.1705 -21.137,-8.8207 -35.111,-16.415 -6.8732,-3.7737 -14.463,-8.2364 -21.048,-12.812 -6.4383,-4.5281 -12.896,-8.7459 -18.56,-12.911 l 0.3759,1.3958 c -18.991,-13.808 -53.718,-41.212 -65.935,-53.062 -14.506,-12.844 -32.522,-29.878 -49.673,-50.226 -17.198,-20.239 -33.482,-43.873 -44.95,-68.001 0,0 -4.2464,-7.5602 -8.5124,-15.117 -4.0347,-7.7142 -7.6571,-15.743 -7.6471,-15.744 l -1.563,-4.8844 c 0,0 3.4978,-16.057 10.73,-22.776 3.7069,-3.4762 8.0578,-4.8235 13.109,-1.7119 5.2494,3.0106 10.181,10.492 17.627,24.099 l 0.5099,-1.2566 c -0.01,0 0.993,2.8596 2.1701,5.6627 1.2544,2.7776 2.5194,5.558 2.5194,5.558 6.319,13.173 9.3969,19.37 9.4961,18.136 0,0 -2.4384,-4.4106 -4.8779,-8.8283 -2.1515,-4.5303 -4.2835,-9.0642 -4.2835,-9.0642 6.4367,13.224 2.553,3.6743 0.6766,-1.5983 2.6535,5.505 5.1671,10.866 7.9172,14.963 1.0746,2.7147 -1.3623,-1.6842 -2.6455,-3.6107 3.4239,7.1371 7.9935,17.298 13.743,25.243 8.3978,12.721 1.6997,0.039 11.904,14.598 27.972,37.819 63.045,70.134 101.04,98.545 9.4943,7.1224 19.302,13.944 29.191,20.542 4.8776,3.0991 10.165,6.8531 14.712,9.44 4.5084,2.7464 9.538,5.3916 14.608,7.8823 20.391,10.046 42.941,18.037 65.963,24.485 2.1975,0.2181 -0.3045,-0.4723 -2.9163,-1.3841 27.657,8.2429 53.12,12.698 78.948,15.418 7.2251,0.2511 9.1981,-0.3907 11.33,-0.5935 -2.4024,0.1397 34.22,3.7116 67.565,-4.3293 16.651,-3.7584 31.6,-10.631 40.788,-17.671 9.4709,-6.8025 13.813,-13.184 14.121,-13.524"
           id="path176"
           inkscape:connector-curvature="0" />
        <path
           d="m 7445,1780.9 c 1.0838,-0.3478 1.6569,0.096 2.2611,0.4701 -1.0931,0.2777 -1.8177,0.1372 -2.2611,-0.4701"
           id="path178"
           inkscape:connector-curvature="0" />
        <path
           d="m 7447.3,1781.4 -0.01,0.017 -0.021,-0.012 0.03,-0.01"
           id="path180"
           inkscape:connector-curvature="0" />
        <path
           d="m 7610,1828.3 -0.8335,0.4096 L 7610,1828.3"
           id="path182"
           inkscape:connector-curvature="0" />
        <path
           d="m 7476.7,1797.5 -0.5035,1.6109 c 1.6641,0.6083 1.1666,-1.6308 2.5296,-0.7043 -0.191,2.4491 2.6,0.6694 2.7237,2.0641 l 0.9861,-0.7061 c -0.1673,1.3303 0.6699,0.5662 1.0876,0.98 l -0.4953,0.6797 1.0226,0.7163 0.431,-1.2431 c 3.4189,0.4542 17.074,2.272 21.058,2.7981 -0.5224,0.9324 -1.497,0.1977 -2.0674,1.6841 0.8081,0.9252 1.3567,-0.1916 1.672,0.7445 0.5613,-2.2417 2.0377,-0.3802 2.8918,-2.6201 l 0.1632,1.3099 0.4964,-0.7474 c 3.8478,1.6393 0.8482,0.8462 4.3705,0.6332 2.0347,0.2074 2.9788,2.0093 4.1436,1.3592 l -0.1025,1.1332 c 0.1025,-1.1332 1.4411,0.8294 1.7039,-0.312 0.5138,0.149 2.2224,0.025 1.6691,1.564 l 0.8793,-1.7432 1.3749,0.023 -0.6433,0.4753 c 1.7591,0.1066 2.6418,-1.1528 3.8464,0.1778 l -0.6193,0.6568 c 1.053,0.03 1.939,0.094 2.2577,-1.4642 l -1.1021,-0.4022 c 1.7255,-0.071 2.7598,-0.03 4.2779,0.6959 l -0.5154,0.069 c 1.9403,1.5554 11.783,1.3862 13.862,2.996 l -0.5898,1.3387 1.6621,0.6702 -1.4666,-3.2379 c 3.1665,-0.3112 19.596,-3.305 21.914,-5.455 0.8733,-1.0252 -0.4363,-1.8528 -0.5094,-2.0248 1.4643,-0.063 0.9963,0.976 2.0892,0.4685 l -0.6191,-0.946 1.0766,-0.096 c -0.4616,0.6289 0.3143,1.9214 0.3852,2.9167 l 1.4252,-0.6653 -0.4035,-0.8404 c 0.3139,-0.144 1.7466,2.0742 3.037,1.0756 2.2647,-1.335 4.8591,-2.312 7.146,-3.5552 l -1.5554,-0.6267 0.9497,-0.7518 c -0.1209,1.1466 1.2698,0.144 1.0231,0.7203 2.8174,1.3224 3.8272,-1.8773 6.0405,-1.3102 0.8339,1.884 21.432,28.246 23.023,30.132 l 1.2594,-1.0802 -1.7424,1.6241 -0.8036,-1.0438 c -1.7137,0.4664 0.064,0.862 -1.4392,1.6274 0.4706,0.9667 1.9362,0.3788 3.1772,-0.23 -1.0028,0.7317 -1.6703,2.0171 -2.7074,1.2675 -0.7801,0.9665 0.7849,1.0553 -0.2188,2.1612 -1.0289,0.2299 -2.6759,-0.021 -3.3752,1.0994 l 0.1013,0.156 c -1.9197,2.4202 -4.4765,0.6266 -6.25,2.626 l 0.4006,0.2073 c -0.5325,0.9327 -2.4613,0.9161 -3.6361,2.1788 0.3224,-0.3855 0.3491,-1.2525 -0.5614,-0.9668 -1.3915,1.378 -2.7959,1.2841 -3.6908,2.6036 l -1.5735,-0.4579 c -2.9004,1.0285 -10.204,3.9247 -17.665,5.3983 -7.4009,1.9305 -14.909,2.7445 -17.898,3.3329 l 0.2673,0.114 c -9.2148,1.2563 -28.188,3.3211 -37.753,1.1638 -1.5002,1.0141 -3.5322,0.7498 -5.092,1.0073 0.8733,-0.4149 0.6164,-1.1375 -0.057,-1.1231 -4.6953,-0.2666 -0.2885,-0.7336 -4.9782,-1.5688 -7.0808,-0.9914 -24.86,-3.4862 -31.232,-4.3816 -2.1736,-2.0228 -5.6697,-2.0685 -7.8448,-3.8742 l 0.1275,0.429 c -1.221,-0.8435 -5.7891,-1.9035 -10.247,-3.8082 -4.4673,-1.9005 -9.0415,-3.7707 -10.367,-4.8688 l 0.4906,0.049 c -2.0677,-2.3667 -2.5248,-0.7106 -4.8089,-1.5084 1.1296,-1.2991 -0.5059,-3.4474 -1.2323,-4.0606 l -0.1683,0.3289 c -1.0512,-1.0858 -3.0841,-3.8 -4.7319,-5.5846 l -0.4783,0.8076 c -0.9663,-2.0471 -4.1151,-4.0461 -5.1731,-5.03 -2.8798,-1.5655 -7.5662,-4.2096 -9.7414,-8.3071 l -3.9712,-0.3583 -0.095,-0.4847 c 0,0 5.3014,-6.0663 11.897,-11.957 6.5777,-5.9483 14.337,-11.811 18.184,-12.773 l 0.6605,-0.65 0.412,0.5992 1.0754,0.6578 -0.9092,-0.7746 0.9084,-0.9117 1.0392,0.3832 -0.6073,0.2143 0.6027,1.7371 1.8818,-0.3389 c 4.295,3.2698 8.9996,5.5918 13.678,8.5599 l 0.1271,-0.5645 c 1.2185,1.2068 2.4501,1.9772 3.736,2.931 l 1.2485,-0.9335 7.7474,4.1302"
           id="path184"
           inkscape:connector-curvature="0" />
        <path
           d="m 7601,1840.6 c 0.1424,1.0796 -0.218,1.4036 -0.5335,1.764 -0.1074,-1.0419 0.059,-1.6146 0.5335,-1.764"
           id="path186"
           inkscape:connector-curvature="0" />
        <path
           d="m 7600.5,1842.4 -0.013,-0.014 0.01,-0.014 v 0.028"
           id="path188"
           inkscape:connector-curvature="0" />
        <path
           d="m 7527.7,1974.6 -0.5928,-0.8991 0.5928,0.8991"
           id="path190"
           inkscape:connector-curvature="0" />
        <path
           d="m 7582.1,1863.5 -1.4116,-0.9131 c -0.9724,1.2673 1.2772,1.4987 0.079,2.4286 -2.2652,-0.883 -1.2838,2.0417 -2.544,1.8178 l 0.4822,1.1305 c -1.1978,-0.5155 -0.6429,0.4784 -1.1592,0.6928 l -0.5179,-0.6366 -0.9406,0.6678 1.0687,0.7607 c -1.2125,2.5042 -6.5915,14.705 -8.0114,17.319 -0.7346,-0.7503 0.2178,-1.329 -1.0283,-2.287 -1.0996,0.3812 -0.1941,1.2038 -1.1573,1.1655 1.9632,1.1942 -0.191,1.8378 1.6948,3.2864 l -1.2796,-0.296 0.5725,0.6699 c -2.6099,2.6928 -1.0074,0.4678 -1.8154,3.4382 -0.737,1.5992 -2.7072,1.8039 -2.4124,2.9664 l -1.0374,-0.4461 c 1.0473,0.4448 -1.1802,0.9164 -0.1656,1.4956 -0.2826,0.3803 -0.6358,1.83 -1.951,0.884 0.6586,0.481 0.5225,1.8183 1.4192,1.2752 l -0.4588,1.1086 -0.2196,-0.669 c -0.7275,1.365 0.3469,2.476 -1.2748,3.0249 l -0.4556,-0.7003 c -0.3127,0.8411 -0.6143,1.5356 0.7826,2.2609 l 0.6874,-0.7524 c -0.4,1.4005 -0.7163,2.2139 -1.8158,3.2063 l 0.074,-0.4314 c -2.1494,1.1392 -4.5023,8.8335 -6.6974,10.085 l -1.0754,-0.8112 -1.2016,1.1361 3.5697,-0.314 c -0.3598,1.3244 -0.6073,5.179 -1.0953,9.1209 0.2469,3.6268 0.1591,7.4684 0.9325,8.2841 l 2.0814,-0.2032 c -0.2138,0.9774 -1.1492,0.6167 -0.866,1.3863 l 1.0495,-0.3786 -0.1245,0.7376 c -0.5192,-0.341 -1.9183,0.1393 -2.9067,0.1397 l 0.3701,1.0466 0.8942,-0.2562 c 0.07,0.2197 -2.3441,1.1921 -1.6388,2.1784 0.5694,1.8675 1.4455,3.3081 2.1309,4.9082 l 0.834,-1.1703 0.5399,0.5753 c -1.0323,0.05 -0.342,0.9237 -0.8305,0.8147 -1.7274,2.3485 1.1569,2.4204 0.42,4.0973 -0.8283,0.6016 -7.7788,6.0193 -14.26,12.167 -6.5506,6.078 -12.597,12.843 -13.532,13.628 l 1.3553,1.326 c -0.5562,0.2187 -1.7455,-0.9204 -2.007,-1.831 l 0.9351,-0.9395 c -0.7911,-1.8655 -0.8825,0.1161 -1.9344,-1.5097 -0.9273,0.54 -0.058,2.1591 0.8066,3.5105 -0.938,-1.0693 -2.4155,-1.7931 -1.8137,-2.964 -1.1411,-0.8499 -0.9605,0.8995 -2.2862,-0.2024 -0.4365,-1.1669 -0.4161,-2.9983 -1.6904,-3.7873 l -0.146,0.1168 c -2.9061,-2.2238 -0.9939,-5.006 -3.115,-7.0903 l -0.1958,0.4274 c -0.9762,-0.671 -0.9882,-2.824 -2.2785,-4.2695 0.3973,0.4125 1.2811,0.5359 0.9918,-0.5093 -1.3726,-1.6858 -1.3556,-3.2373 -2.5449,-4.3764 l 0.6948,-1.6129 c -0.8564,-3.2004 -2.7174,-11.564 -2.4258,-19.132 -0.3272,-7.8246 1.2208,-14.74 1.3044,-17.773 l -0.1841,0.2099 c 1.4849,-8.6912 5.2506,-25.852 9.9231,-33.167 -0.5227,-1.5903 0.265,-3.2629 0.5066,-4.6414 l 1.0815,0.3212 c 1.5259,-3.8731 0.7766,3e-4 2.8216,-3.6861 2.4515,-4.1971 9.9119,-20.954 11.831,-24.982 2.5421,-1.1436 2.9759,-4.2744 5.2067,-5.5615 l -0.4363,-0.018 c 0.9688,-0.837 3.2088,-4.2688 5.5233,-7.7468 2.4846,-3.4127 5.2877,-6.7816 6.436,-7.71 l -0.093,0.442 c 2.4156,-1.2601 0.8422,-2.176 2.0129,-4.005 1.0192,1.3784 3.3552,0.507 4.0674,0.019 l -0.2846,-0.2458 c 1.1598,-0.6888 4.2995,-1.5846 5.9922,-2.8208 l -0.6716,-0.6557 c 1.8222,-0.4848 4.5868,-2.7694 5.6701,-3.5036 0.9336,-0.9504 2.6417,-2.6809 3.9842,-4.0485 1.6937,-1.3816 3.9089,-2.5567 6.1484,-3.0139 l 1.5265,-3.7168 0.5011,0.052 c 0,0 4.1762,6.8765 7.6699,15 3.5918,8.1034 6.6774,17.338 7.0379,21.061 l 0.412,0.8282 -0.4682,0.1211 -0.5802,0.6476 0.6449,-0.4634 0.5848,1.1442 -0.3366,0.7344 -0.1203,-0.6034 -1.328,-0.2029 0.1531,1.6946 c -1.3831,1.1358 -2.8227,3.0669 -4.2776,4.3474 -1.4592,1.7057 -2.9612,3.5463 -4.7957,5.007 l 0.5009,0.2798 c -1.3183,0.7107 -2.0712,1.96 -3.3052,2.698 l 0.6334,1.3587 c -0.2052,-0.331 -1.6409,0.942 -3.0055,2.371 -1.2602,1.6088 -2.4764,3.3218 -2.4314,3.4338"
           id="path192"
           inkscape:connector-curvature="0" />
        <path
           d="m 6769.5,2127.5 c -0.8434,0.5643 -2.0752,0.3259 -3.2577,0.1549 1.0355,-0.4838 2.0346,-0.5562 3.2577,-0.1549"
           id="path194"
           inkscape:connector-curvature="0" />
        <path
           d="m 6766.2,2127.6 -0.013,-0.018 0.041,0.01 -0.028,0.015"
           id="path196"
           inkscape:connector-curvature="0" />
        <path
           d="m 6596,1990.4 0.6943,0.5983 L 6596,1990.4"
           id="path198"
           inkscape:connector-curvature="0" />
        <path
           d="m 6711.1,2111.4 0.3725,-1.2273 c -2.4754,-1.2527 -1.3368,0.9522 -3.5034,-0.4835 -0.1302,-2.0547 -3.9012,-1.7382 -4.2881,-2.9873 l -1.3712,0.1576 c 0.085,-1.04 -1.0515,-0.7831 -1.6526,-1.3624 l 0.6431,-0.3249 -1.4686,-1.1144 -0.5468,0.8247 c -2.1118,-1.0213 -8.7183,-3.4624 -14.621,-6.9112 -5.9979,-3.3325 -11.982,-6.7937 -14.027,-8.297 0.9396,-0.2936 2.0198,0.9346 3.1306,0.2563 -0.8084,-1.2327 -1.8027,-0.818 -1.9589,-1.6951 -1.3359,1.1881 -2.7249,-1.1572 -4.5165,-0.2115 l 0.1878,-1.0224 -0.886,0.1645 c -4.4782,-3.8923 -0.9177,-1.0681 -5.3445,-3.7305 -2.3857,-1.797 -2.8199,-3.7097 -4.4616,-4.2252 l 0.5822,-0.6327 -2.1501,-1.1584 c -0.5615,-0.5089 -2.6472,-1.7899 -1.3104,-2.2852 -0.6637,0.245 -2.6051,-0.7836 -1.8085,0.3606 l -1.615,-1.1544 0.9628,0.2632 c -1.9577,-1.5339 -3.5846,-1.5561 -4.3222,-3.3217 l 1.0162,0.1331 c -1.1869,-0.8913 -2.156,-1.6611 -3.2954,-1.0466 l 1.0591,1.1452 c -2.0222,-1.4114 -3.2184,-2.2974 -4.5474,-3.9587 l 0.6155,0.3837 c -1.4519,-2.4399 -11.762,-11.232 -12.825,-13.782 l 1.4132,-0.069 -1.1974,-1.8118 -0.5891,2.7962 c -3.6198,-2.5874 -21.122,-16.884 -24.652,-18.865 -1.5815,-0.5951 -1.0853,0.9473 -1.1602,1.0671 -1.3632,-1.4621 -0.096,-1.2633 -1.4744,-2.2281 l -0.2277,0.8733 -1.0382,-1.0643 2.0382,-1.1406 -1.7578,-1.2416 -0.3525,0.6145 c -0.3889,-0.2714 0.1969,-2.2522 -1.6993,-3.2435 -2.9878,-1.9253 -5.8854,-4.4668 -8.7995,-6.5211 l 0.6747,1.6722 -1.431,-0.8308 c 1.1315,-0.063 -0.8891,-1.3089 -0.162,-1.1457 -1.0243,-2.9453 -4.6437,-3.7715 -5.7585,-6.1026 0.7817,-1.3368 12.16,-23.943 13.27,-25.394 l -1.442,-0.8374 2.0953,1.1254 -0.4924,0.8538 c 1.1638,1.327 0.678,-0.2124 1.9714,0.8744 0.5586,-0.5822 -0.5735,-1.6703 -1.5992,-2.5627 1.0273,0.6753 2.356,0.9608 2.2168,1.9687 1.1167,0.4356 0.4915,-0.8608 1.8091,-0.2785 0.6395,0.7942 1.1897,2.2103 2.3823,2.534 l 0.064,-0.1265 c 2.6996,1.0415 2.6179,3.5548 5.1177,4.4584 l -0.05,-0.3798 c 0.9922,0.1796 2.0068,1.7523 3.5789,2.3527 l -0.4187,0.725 c 1.7819,0.7371 2.471,1.9069 3.928,2.2471 l 0.5496,1.4122 c 5.1948,3.7431 24.494,20.19 29.59,23.867 l -0.1333,-0.2467 c 3.9281,3.0117 9.7104,7.4609 15.604,11.99 5.9893,4.2596 11.962,8.6252 15.779,11.864 1.6931,0.2173 3.3425,1.5558 4.7792,2.2759 l -0.363,0.7652 c 4.1464,2.5258 -0.025,0.6498 3.988,3.4646 4.4484,3.5148 23.332,14.059 28.218,15.159 1.8538,2.1983 5.1964,2.9148 7.2108,4.7256 l -0.1176,-0.3547 c 1.1915,0.6971 5.302,3.0269 9.7293,4.4717 4.4161,1.5129 8.856,3.0538 10.279,3.8242 l -0.4548,-0.01 c 2.3595,1.6746 2.4402,0.3758 4.6147,0.8017 -0.7023,1.0975 1.2976,2.646 2.1304,3.0716 l 0.054,-0.2795 c 1.2344,0.6409 3.7632,3.0617 5.9581,3.6423 l 0.1207,-0.6898 c 1.6191,1.1853 5.1774,1.7785 6.4725,2.1905 3.1226,0.5025 8.0277,0.5245 11.846,2.4784 l 2.9994,-1.2707 0.342,0.2978 c 0,0 -0.1341,6.1646 -0.9825,12.801 -0.8513,6.6144 -2.4825,13.74 -6.0275,15.462 l -0.048,0.7074 -1.172,-0.3969 c -1.5074,-0.034 -1.9972,-0.9931 -2.0549,-0.2845 l 1.9925,0.4229 c -1.4856,-0.1741 -0.5568,0.4437 -0.084,0.9682 l -1.7539,-0.068 0.5323,-0.3225 c -0.7338,-0.4387 -1.6718,-1.3548 -2.6813,-1.2849 -1.4942,-0.3152 -0.3523,1.0753 -2.1054,0.7076 -9.2058,-1.9595 -18.605,-2.9414 -27.24,-6.9151 l 0.1578,0.5037 c -2.5739,-1.3113 -4.9909,-2.1229 -7.3026,-3.3588 l -1.44,0.5532 -13.293,-6.0224"
           id="path200"
           inkscape:connector-curvature="0" />
      </g>
    </g>
  </g>
</svg>
